<?xml version="1.0" encoding="UTF-8"?>
<svg version="1.1" xmlns="http://www.w3.org/2000/svg" width="478" height="472">
<path d="M0 0 C1.59288849 0.11665009 1.59288849 0.11665009 3.21795654 0.23565674 C34.67001681 2.55135481 65.92979659 5.51754241 97 11 C98.05133118 11.18369141 98.05133118 11.18369141 99.12390137 11.37109375 C116.46510483 14.41209766 133.28545974 18.43688859 150 24 C151.11832319 105.83258231 138.49134836 187.16123643 104 262 C103.53867676 263.00627441 103.07735352 264.01254883 102.60205078 265.04931641 C84.00749347 305.36795862 59.91393339 341.92592994 30.02734375 374.75390625 C28.24969012 376.72336836 26.52789863 378.72659962 24.8125 380.75 C16.92159568 389.80241593 8.17923226 398.26749456 -1 406 C-2.0117083 406.88524476 -3.02199135 407.77211968 -4.03125 408.66015625 C-23.93393035 426.09257456 -45.87518309 441.15736477 -69 454 C-69.64614258 454.36270996 -70.29228516 454.72541992 -70.95800781 455.09912109 C-72.8150241 456.13032573 -74.68432328 457.13295313 -76.5625 458.125 C-77.61566406 458.68445313 -78.66882813 459.24390625 -79.75390625 459.8203125 C-86.19435087 462.16088323 -90.34367879 461.53886858 -96.40625 458.71875 C-98.44865087 457.66721521 -100.47942209 456.59288227 -102.5 455.5 C-104.13183228 454.63290405 -104.13183228 454.63290405 -105.79663086 453.74829102 C-128.52746137 441.41206793 -149.51129094 425.94787875 -169 409 C-169.71285156 408.38769531 -170.42570313 407.77539062 -171.16015625 407.14453125 C-184.17598225 395.89265702 -196.87258331 384.14641188 -208 371 C-208.91167033 369.95087466 -209.82454078 368.90279159 -210.73828125 367.85546875 C-217.46316304 360.12304897 -223.90152887 352.23600367 -230 344 C-230.40428223 343.45408203 -230.80856445 342.90816406 -231.22509766 342.34570312 C-238.22688001 332.83238172 -244.73770051 323.01368434 -251 313 C-251.40154297 312.35820801 -251.80308594 311.71641602 -252.21679688 311.05517578 C-294.79497244 242.31728087 -315.86807593 162.98339003 -323 83 C-323.09788818 81.97986816 -323.19577637 80.95973633 -323.29663086 79.90869141 C-324.27093025 68.49302163 -324.110395 57.07280986 -324.0625 45.625 C-324.05747309 43.5208344 -324.0529123 41.41666764 -324.04882812 39.3125 C-324.03792117 34.20830399 -324.02072272 29.10416521 -324 24 C-304.55650798 17.88447323 -285.02154826 13.69116665 -265 10 C-264.06381836 9.82484863 -263.12763672 9.64969727 -262.16308594 9.46923828 C-233.2067162 4.13958762 -203.34571438 2.04444541 -174 0 C-172.88776062 -0.0799118 -172.88776062 -0.0799118 -171.75305176 -0.16143799 C-115.07327142 -4.20733734 -56.66087599 -4.24124057 0 0 Z " fill="#020000" transform="translate(325,5)"/>
<path d="M0 0 C1.59288849 0.11665009 1.59288849 0.11665009 3.21795654 0.23565674 C34.67001681 2.55135481 65.92979659 5.51754241 97 11 C98.05133118 11.18369141 98.05133118 11.18369141 99.12390137 11.37109375 C116.46510483 14.41209766 133.28545974 18.43688859 150 24 C151.11832319 105.83258231 138.49134836 187.16123643 104 262 C103.53867676 263.00627441 103.07735352 264.01254883 102.60205078 265.04931641 C84.00749347 305.36795862 59.91393339 341.92592994 30.02734375 374.75390625 C28.24969012 376.72336836 26.52789863 378.72659962 24.8125 380.75 C16.92159568 389.80241593 8.17923226 398.26749456 -1 406 C-2.0117083 406.88524476 -3.02199135 407.77211968 -4.03125 408.66015625 C-23.93393035 426.09257456 -45.87518309 441.15736477 -69 454 C-69.64614258 454.36270996 -70.29228516 454.72541992 -70.95800781 455.09912109 C-72.8150241 456.13032573 -74.68432328 457.13295313 -76.5625 458.125 C-77.61566406 458.68445313 -78.66882813 459.24390625 -79.75390625 459.8203125 C-86.19435087 462.16088323 -90.34367879 461.53886858 -96.40625 458.71875 C-98.44865087 457.66721521 -100.47942209 456.59288227 -102.5 455.5 C-104.13183228 454.63290405 -104.13183228 454.63290405 -105.79663086 453.74829102 C-128.52746137 441.41206793 -149.51129094 425.94787875 -169 409 C-169.71285156 408.38769531 -170.42570313 407.77539062 -171.16015625 407.14453125 C-184.17598225 395.89265702 -196.87258331 384.14641188 -208 371 C-208.91167033 369.95087466 -209.82454078 368.90279159 -210.73828125 367.85546875 C-217.46316304 360.12304897 -223.90152887 352.23600367 -230 344 C-230.40428223 343.45408203 -230.80856445 342.90816406 -231.22509766 342.34570312 C-238.22688001 332.83238172 -244.73770051 323.01368434 -251 313 C-251.40154297 312.35820801 -251.80308594 311.71641602 -252.21679688 311.05517578 C-294.79497244 242.31728087 -315.86807593 162.98339003 -323 83 C-323.09788818 81.97986816 -323.19577637 80.95973633 -323.29663086 79.90869141 C-324.27093025 68.49302163 -324.110395 57.07280986 -324.0625 45.625 C-324.05747309 43.5208344 -324.0529123 41.41666764 -324.04882812 39.3125 C-324.03792117 34.20830399 -324.02072272 29.10416521 -324 24 C-304.55650798 17.88447323 -285.02154826 13.69116665 -265 10 C-264.06381836 9.82484863 -263.12763672 9.64969727 -262.16308594 9.46923828 C-233.2067162 4.13958762 -203.34571438 2.04444541 -174 0 C-172.88776062 -0.0799118 -172.88776062 -0.0799118 -171.75305176 -0.16143799 C-115.07327142 -4.20733734 -56.66087599 -4.24124057 0 0 Z M-169.0625 36.3125 C-170.40675552 36.40862076 -170.40675552 36.40862076 -171.77816772 36.50668335 C-211.15876461 39.34596108 -250.54364228 43.81275175 -289 53 C-289.1962767 63.04173407 -288.6122409 72.94398661 -287.75 82.9375 C-287.68375427 83.71768494 -287.61750854 84.49786987 -287.54925537 85.30169678 C-285.45268909 109.77778808 -282.08880971 133.95854583 -277 158 C-276.76474609 159.14307617 -276.52949219 160.28615234 -276.28710938 161.46386719 C-269.92591148 192.05300482 -260.00295788 221.59214897 -247 250 C-246.5153125 251.06283203 -246.030625 252.12566406 -245.53125 253.22070312 C-239.08065614 267.25578429 -232.08744842 280.83752096 -224 294 C-223.61779297 294.62374512 -223.23558594 295.24749023 -222.84179688 295.89013672 C-213.56041586 310.92122688 -203.23083233 325.21945292 -191.8815918 338.75341797 C-190.44934015 340.46349708 -189.02833809 342.18300509 -187.61254883 343.90673828 C-181.2798808 351.56681371 -174.5668608 358.71799294 -167.5012207 365.70458984 C-165.79765184 367.38968716 -164.10243734 369.08286615 -162.40820312 370.77734375 C-143.81290455 389.3154255 -123.02861849 404.75233448 -100.390625 418.0078125 C-98.32127111 419.22367712 -96.26514374 420.46291793 -94.234375 421.7421875 C-93.45578125 422.21914063 -92.6771875 422.69609375 -91.875 423.1875 C-90.91207031 423.79658203 -90.91207031 423.79658203 -89.9296875 424.41796875 C-87.06739484 425.28129184 -85.63713237 424.30272755 -83 423 C-82.1440625 422.59265625 -81.288125 422.1853125 -80.40625 421.765625 C-60.36603784 411.31454662 -40.94025767 397.68460553 -24.41503906 382.2434082 C-22.08559635 380.07951323 -19.72052578 377.96322135 -17.34375 375.8515625 C-5.062653 364.81023697 6.99104986 353.16759318 17 340 C17.83458199 338.95230455 18.67200445 337.90686773 19.51171875 336.86328125 C50.77837696 297.87318217 73.0476105 254.97096639 89.375 207.8125 C89.98226929 206.05945557 89.98226929 206.05945557 90.60180664 204.27099609 C95.00915172 191.33457959 98.55647006 178.2947607 101.4375 164.9375 C101.58651764 164.24891907 101.73553528 163.56033813 101.8890686 162.85089111 C109.7068666 126.57468952 114.46553423 90.12694126 115 53 C91.87586784 47.46657725 68.56113614 44.05479907 45 41 C43.7325293 40.83371094 42.46505859 40.66742188 41.15917969 40.49609375 C25.11643947 38.44158649 9.01005002 37.39380754 -7.125 36.375 C-8.11622864 36.31228912 -9.10745728 36.24957825 -10.12872314 36.18496704 C-34.54627959 34.66098956 -58.90855695 33.82951412 -83.37548828 33.86962891 C-87.23343873 33.87497704 -91.09127183 33.86964831 -94.94921875 33.86328125 C-119.68564274 33.85533552 -144.38837691 34.51874594 -169.0625 36.3125 Z " fill="#F89704" transform="translate(325,5)"/>
<path d="M0 0 C2.63773024 0.36148766 3.74646633 0.70801264 5.51953125 2.75 C8.33578606 7.65079388 9.72859687 11.26910979 8.73046875 16.921875 C7.53161577 20.33251558 5.47633093 22.39667774 3 25 C3 25.66 3 26.32 3 27 C3.99 27.33 4.98 27.66 6 28 C9.28965949 21.49411092 12.19290104 15.07780426 14 8 C16.32563802 8.93025521 17.71833019 9.56650816 19.1015625 11.6953125 C21.01190682 16.59576096 20.7163886 21.86094789 20 27 C18.63330896 29.80307171 17.12888508 32.12936745 15.21484375 34.5859375 C13.40160129 38.18910097 13.98860841 40.10397793 15 44 C16.96638197 48.53399748 19.27698431 52.89263514 21.58203125 57.26171875 C23.67215016 61.41201217 24.99440101 64.20014361 25.02734375 68.90625 C23.38042391 73.86579569 20.49745304 76.45249164 16 79 C9.7744298 79.40823411 5.17590492 76.88723525 -0.2890625 74.05859375 C-3.51724898 72.79801949 -5.56775609 72.45249729 -9 73 C-13.21203403 76.89914007 -15.57934499 82.56954536 -18.1875 87.625 C-18.86329102 88.91277344 -18.86329102 88.91277344 -19.55273438 90.2265625 C-25.8394815 102.29108472 -24.88977982 115.08524857 -21 128 C-18.76566463 132.42372721 -15.63331112 135.40795951 -12.0625 138.75 C-11.381875 139.4925 -10.70125 140.235 -10 141 C-10.37109375 143.140625 -10.37109375 143.140625 -11 145 C-23.11705333 146.36127784 -23.11705333 146.36127784 -27.3828125 143.27734375 C-33.71632112 135.28505906 -38 123.18181687 -38 113 C-39.78857422 113.2165625 -39.78857422 113.2165625 -41.61328125 113.4375 C-43.17967646 113.62509224 -44.74608332 113.81258717 -46.3125 114 C-47.09818359 114.09539062 -47.88386719 114.19078125 -48.69335938 114.2890625 C-49.45068359 114.37929688 -50.20800781 114.46953125 -50.98828125 114.5625 C-51.68477783 114.64628906 -52.38127441 114.73007812 -53.09887695 114.81640625 C-55 115 -55 115 -58 115 C-57.16206546 123.37934544 -54.44438061 129.65771297 -50.4609375 136.93359375 C-49 140 -49 140 -49 144 C-52.40109081 144.35661923 -55.60750112 144.49060753 -59 144 C-61.38386507 141.88100882 -62.45316562 140.63410202 -64 138 C-64.41765625 137.37351562 -64.8353125 136.74703125 -65.265625 136.1015625 C-70.21524093 128.55787075 -73.98942792 121.74857058 -74.0625 112.625 C-74.27662491 107.84554889 -74.27662491 107.84554889 -76.84375 104.03515625 C-78.86025182 102.81034441 -80.79030636 101.82045573 -83 101 C-82.9175 102.19625 -82.835 103.3925 -82.75 104.625 C-82.75919192 109.85520164 -85.07359624 112.7025043 -88.37890625 116.64453125 C-91.2412895 120.2571688 -92.78420403 122.99074582 -92.51171875 127.8203125 C-91.66796835 131.41430274 -89.87577036 134.45229851 -87.99609375 137.60546875 C-86.78820251 140.50914456 -87.11975076 142.03245316 -88 145 C-92.27427906 145.33523757 -95.80770258 145.61001263 -99.6875 143.625 C-106.98649407 135.33965539 -109.28191719 128.24988922 -108.609375 117.42382812 C-108.49393899 113.31502776 -108.74691026 110.75494868 -111.34375 107.46484375 C-113.732991 104.71534227 -113.732991 104.71534227 -116.75 104.875 C-120.11785984 106.04079764 -123.27403443 107.44531569 -126.49609375 108.9609375 C-129.21517208 110.08929138 -131.89227266 110.79999142 -134.75 111.5 C-139.7008831 112.8050445 -143.22082459 114.07353024 -145.99951172 118.64404297 C-148.6761305 123.79584292 -150.08479615 128.75648145 -151.1875 134.4375 C-152.89508929 142.89508929 -152.89508929 142.89508929 -154 144 C-155.49738124 144.0979057 -156.99942892 144.12974864 -158.5 144.125 C-159.3146875 144.12757813 -160.129375 144.13015625 -160.96875 144.1328125 C-163 144 -163 144 -164 143 C-164.57270524 131.14633346 -162.19212742 115.70146858 -155 106 C-153.27657788 104.43572271 -151.47856831 103.03187258 -149.640625 101.60546875 C-145.17937624 97.23981818 -144.03017036 90.71013727 -143.1875 84.75 C-141.86653421 76.53195622 -137.86898628 67.12792259 -131.5 61.5625 C-128.61814578 59.16177411 -128.61814578 59.16177411 -128.75 55.375 C-129.77839116 51.89772666 -129.77839116 51.89772666 -132.375 49.5625 C-137.19455012 47.48510771 -141.82502065 46.93686225 -147 48 C-150.42989884 50.62639107 -151.62194401 52.9798409 -152.625 57.125 C-152.86734375 58.08921875 -153.1096875 59.0534375 -153.359375 60.046875 C-153.95995684 62.8154108 -154.42298935 65.57923043 -154.875 68.375 C-155.72940095 72.89111931 -157.25632744 75.16941831 -161 78 C-165.72758571 79.5758619 -170.0255068 79.91014158 -174.55078125 77.82421875 C-177.43075993 75.67916286 -178.64911568 73.73023707 -180.3125 70.5625 C-180.82425781 69.61503906 -181.33601562 68.66757812 -181.86328125 67.69140625 C-183 65 -183 65 -183 61 C-181.948125 61.23009766 -181.948125 61.23009766 -180.875 61.46484375 C-178.00247608 62.04795458 -178.00247608 62.04795458 -175.0625 62.25390625 C-166.91572116 63.07481891 -166.91572116 63.07481891 -164.109375 65.91015625 C-162.88685433 67.90202183 -161.86724667 69.83188332 -161 72 C-158.40703724 67.72271955 -158.02342527 62.87822078 -157.3203125 58.01953125 C-156.51805513 53.17863737 -155.10890663 49.93323793 -152 46 C-147.02526361 42.44661687 -141.90848808 42.17337528 -136 43 C-131.50579206 44.4833535 -129.2021768 46.66255488 -126.7890625 50.640625 C-124.45824007 53.40504683 -123.27419475 53.95594439 -119.64648438 54.53881836 C-116.17519381 54.59737387 -112.77678324 54.53483151 -109.31494141 54.32055664 C-107.13802488 54.18829137 -104.96500323 54.11410038 -102.78515625 54.04882812 C-93.6876153 53.68920541 -86.97836614 52.68066527 -80.12890625 46.34375 C-79.28199219 45.4053125 -78.43507813 44.466875 -77.5625 43.5 C-72.23595509 37.89490087 -67.58424362 35.31346306 -60.21875 33.203125 C-52.17989925 30.88891039 -44.94868957 27.78271474 -37.44775391 24.08520508 C-36.28058838 23.51129028 -36.28058838 23.51129028 -35.08984375 22.92578125 C-34.39753662 22.57942627 -33.70522949 22.23307129 -32.99194336 21.8762207 C-28.61764545 19.95204431 -24.62812483 19.88664014 -19.875 19.75 C-13.11713545 19.43309649 -7.56377368 17.96882523 -2 14 C-0.64908472 11.29816945 -0.66141942 8.88191794 -0.4375 5.875 C-0.35371094 4.77929688 -0.26992188 3.68359375 -0.18359375 2.5546875 C-0.12300781 1.71164063 -0.06242188 0.86859375 0 0 Z " fill="#F89501" transform="translate(317,199)"/>
<path d="M0 0 C0.28758698 7.22238634 0.57208207 14.44488987 0.85449219 21.66748047 C0.95079582 24.12128415 1.04779074 26.5750608 1.14550781 29.02880859 C1.28635273 32.56861494 1.42465925 36.10851305 1.5625 39.6484375 C1.60624756 40.73426117 1.64999512 41.82008484 1.69506836 42.93881226 C1.93977287 49.29651361 2.05581474 55.63767291 2 62 C3.2689209 61.93941406 4.5378418 61.87882812 5.84521484 61.81640625 C10.64238353 61.5885019 15.43980101 61.36623803 20.23730469 61.14550781 C22.2969447 61.04999385 24.35651835 60.95303589 26.41601562 60.85449219 C39.28831802 60.23973311 52.11261134 59.85417382 65 60 C65.28788122 65.94061267 65.57259669 71.8813659 65.85449219 77.82226562 C65.95064597 79.83955899 66.04763598 81.85681269 66.14550781 83.87402344 C66.28675409 86.78830881 66.42490386 89.70272777 66.5625 92.6171875 C66.60624756 93.50614716 66.64999512 94.39510681 66.69506836 95.31100464 C66.96975596 101.21160647 67.04984947 107.09333209 67 113 C65.48877563 113.029729 65.48877563 113.029729 63.94702148 113.06005859 C44.96993885 113.44286042 26.01602896 113.9606777 7.0625 115 C-5.22682531 115.67118005 -17.51018168 116.25267804 -29.8125 116.625 C-31.72180298 116.68494141 -31.72180298 116.68494141 -33.66967773 116.74609375 C-43.44793577 117.02296387 -53.21893257 117.03788664 -63 117 C-63.46142909 107.20847755 -63.91955912 97.41680263 -64.375 87.625 C-64.40891972 86.89577961 -64.44283943 86.16655922 -64.47778702 85.41524124 C-65.76975385 57.61460507 -66.9371935 29.81042136 -68 2 C-45.30225003 0.66431583 -22.74041605 -0.26069156 0 0 Z " fill="#1E1410" transform="translate(161,61)"/>
<path d="M0 0 C7.53599893 0.09400682 15.07172831 0.2014783 22.60742188 0.31738281 C25.15946333 0.35515764 27.7115488 0.39008935 30.26367188 0.421875 C43.27511937 0.58579875 56.24784354 0.85538181 69.22265625 1.8984375 C70.64396851 2.00942276 70.64396851 2.00942276 72.09399414 2.12265015 C85.94819359 3.35455209 100.29430078 6.31722087 109.9375 17.0625 C114.81428946 24.00823044 114.71261823 30.72821625 114 39 C112.02998976 47.83555493 107.44819777 52.16072483 100.0625 56.875 C99.381875 57.24625 98.70125 57.6175 98 58 C98.9075 58.556875 99.815 59.11375 100.75 59.6875 C105.99824256 63.42182643 108.23194411 66.87648936 110 73 C110.43085374 75.63299509 110.81227815 78.22968077 111.125 80.875 C111.25455078 81.90753906 111.25455078 81.90753906 111.38671875 82.9609375 C111.59659566 84.63995275 111.79907087 86.31989048 112 88 C106.66540669 88.06461822 101.33465444 88.05733816 96 88 C95.2152832 87.99419922 94.43056641 87.98839844 93.62207031 87.98242188 C91.3088999 87.95375805 88.99955421 87.88839128 86.6875 87.8125 C85.60384155 87.80391968 85.60384155 87.80391968 84.49829102 87.79516602 C82.44921875 87.70703125 82.44921875 87.70703125 79 87 C76.52925119 84.07133237 75.63847131 81.29356671 75 77.5625 C73.82252427 71.93678262 72.8548396 68.23119006 67.8515625 64.91015625 C61.50195418 61.87578577 54.4059359 62.06139965 47.5 61.75 C46.09105718 61.67349045 44.68220041 61.59537863 43.2734375 61.515625 C39.84978364 61.32802753 36.42496636 61.16187652 33 61 C33 68.92 33 76.84 33 85 C29.08125 85.020625 25.1625 85.04125 21.125 85.0625 C19.91086426 85.071604 18.69672852 85.08070801 17.44580078 85.09008789 C16.45563965 85.09258545 15.46547852 85.09508301 14.4453125 85.09765625 C13.45031738 85.10289307 12.45532227 85.10812988 11.43017578 85.11352539 C6.9273917 84.96450086 2.47664634 84.49155674 -2 84 C-2.15863977 66.3634437 -1.69438598 48.76611372 -1.07287598 31.14343262 C-0.94933896 27.61590243 -0.83036458 24.08821817 -0.7109375 20.56054688 C-0.47827218 13.70687939 -0.24079401 6.85338661 0 0 Z " fill="#FCFCFC" transform="translate(256,74)"/>
<path d="M0 0 C4.69156526 -0.02516103 9.38308926 -0.04307214 14.07470703 -0.05493164 C15.66293016 -0.05988784 17.25114891 -0.06665476 18.83935547 -0.07543945 C28.39320643 -0.1268693 37.85940862 0.06574302 47.38973999 0.7628479 C52.48183638 1.09733942 57.56676583 1.1859393 62.66870117 1.2902832 C85.89536341 1.78763907 108.59667825 2.7334739 129 15 C129 15.66 129 16.32 129 17 C129.58652344 17.25394531 130.17304688 17.50789063 130.77734375 17.76953125 C138.32530366 21.94810308 141.63050843 29.81944679 144.1875 37.625 C146.27659207 46.68358411 145.25391991 56.08494179 143 65 C142.34 65 141.68 65 141 65 C140.87625 65.556875 140.7525 66.11375 140.625 66.6875 C139.94023145 69.22114364 139.00866237 71.57921032 138 74 C137.34 74 136.68 74 136 74 C136.26554688 74.55945313 136.53109375 75.11890625 136.8046875 75.6953125 C139.00788859 80.6967398 140.27595486 85.18367329 140.875 90.625 C141.6371514 97.07505906 143.45742808 102.5555696 145.96826172 108.49462891 C147.64569142 112.55593829 148.12198331 115.6392884 148 120 C139.04091363 120.10750242 130.08641186 120.13691552 121.12704468 120.05122375 C117.27498838 120.01531256 113.42623136 119.99811117 109.57421875 120.04541016 C87.25802741 120.28832026 87.25802741 120.28832026 81.97558594 116.578125 C78.39872672 112.56517366 77.14821377 108.16696199 76 103 C75.71640625 102.01257813 75.4328125 101.02515625 75.140625 100.0078125 C74.5 97.5625 74.5 97.5625 74 94 C68.555 93.505 68.555 93.505 63 93 C63 100.92 63 108.84 63 117 C47.88461324 117.10628006 32.79560418 117.02286199 17.6875 116.5625 C17.00163818 116.54285187 16.31577637 116.52320374 15.60913086 116.50296021 C13.63901849 116.44543846 11.66911077 116.38103558 9.69921875 116.31640625 C8.57346436 116.27974854 7.44770996 116.24309082 6.2878418 116.20532227 C2.81836722 115.98865722 -0.56249849 115.50831188 -4 115 C-4.12824593 101.02240262 -3.73589126 87.10770433 -3.125 73.14453125 C-3.03496996 71.01935782 -2.94529571 68.89416928 -2.85595703 66.76896667 C-2.62274833 61.24362974 -2.38478975 55.71850782 -2.14575195 50.19342041 C-1.90152179 44.52816024 -1.66190781 38.86270491 -1.421875 33.19726562 C-0.95236765 22.13131754 -0.47782898 11.06559166 0 0 Z M15 16 C14.73451871 23.55602649 14.47351293 31.11219748 14.21769714 38.66855717 C14.09868737 42.18007355 13.97832913 45.69153114 13.85449219 49.20288086 C13.25827734 66.1389908 12.84754568 83.05110274 13 100 C18.49388768 100.6032546 23.91135678 101.12678233 29.4453125 101.09765625 C30.43547363 101.09515869 31.42563477 101.09266113 32.44580078 101.09008789 C33.65993652 101.08098389 34.87407227 101.07187988 36.125 101.0625 C40.04375 101.041875 43.9625 101.02125 48 101 C48 93.08 48 85.16 48 77 C52.12762273 77.19508665 56.25250724 77.40121503 60.37792969 77.63476562 C61.77798915 77.71079278 63.17840264 77.78059026 64.57910156 77.84375 C79.49473721 78.52463494 79.49473721 78.52463494 86 83 C87.5859375 85.078125 87.5859375 85.078125 88.375 87.25 C88.66890625 88.03117187 88.9628125 88.81234375 89.265625 89.6171875 C90.32322212 93.04875263 91.15750395 96.50965921 92 100 C92.99 101.485 92.99 101.485 94 103 C96.61185666 103.39877998 98.99954282 103.60674787 101.625 103.6875 C102.74733032 103.73765259 102.74733032 103.73765259 103.89233398 103.78881836 C111.59247346 104.09940544 119.29549695 104.09332507 127 104 C125.99500987 89.40078631 125.99500987 89.40078631 118.4375 77.5625 C116.64558554 76.14823633 115.04270773 75.02135386 113 74 C113.60328125 73.62488281 114.2065625 73.24976563 114.828125 72.86328125 C121.30358247 68.71689961 125.8675942 65.04331688 128.45703125 57.50390625 C130.06683483 50.08027968 130.46485778 41.40371882 126.3828125 34.73828125 C121.06654699 28.05540511 115.06501897 24.54559596 107 22 C106.18789063 21.72414063 105.37578125 21.44828125 104.5390625 21.1640625 C84.64998804 15.27316361 62.01860279 16.63055084 41.5 16.375 C38.91144716 16.33668474 36.32290522 16.297626 33.734375 16.2578125 C27.48968232 16.16334287 21.24492025 16.07790143 15 16 Z " fill="#1E1513" transform="translate(241,58)"/>
<path d="M0 0 C1.14726562 0.00451172 2.29453125 0.00902344 3.4765625 0.01367188 C6.27609813 0.02533661 9.07551986 0.04170386 11.875 0.0625 C13.79310287 21.11316885 14.1171043 41.94355587 13.875 63.0625 C14.81891602 63.00191406 15.76283203 62.94132812 16.73535156 62.87890625 C37.14973791 61.58444502 57.41263042 60.7664207 77.875 61.0625 C77.875 67.6625 77.875 74.2625 77.875 81.0625 C59.63765673 82.49948311 41.44547161 83.49975633 23.15942383 84.06787109 C19.25516524 84.18928296 15.35122754 84.31864172 11.44726562 84.44921875 C8.92188964 84.5316995 6.39649947 84.61374722 3.87109375 84.6953125 C2.72515244 84.73278595 1.57921112 84.7702594 0.39854431 84.80886841 C-6.44520098 85.01974091 -13.27810039 85.10784122 -20.125 85.0625 C-20.51776771 75.14390509 -20.90904991 65.22525279 -21.29845428 55.30652523 C-21.47933107 50.70049628 -21.66071267 46.09448839 -21.84326172 41.48852539 C-22.01952779 37.04061536 -22.19444983 32.5926543 -22.36845398 28.14465523 C-22.43495673 26.45064993 -22.50193754 24.75666332 -22.56941223 23.06269646 C-22.6640905 20.6836916 -22.75704363 18.30462497 -22.84960938 15.92553711 C-22.87766159 15.23069717 -22.90571381 14.53585724 -22.93461609 13.81996155 C-23.09796821 9.56498581 -23.14935937 5.32040148 -23.125 1.0625 C-15.39714866 0.09296618 -7.78166099 -0.05881488 0 0 Z " fill="#F99601" transform="translate(133.125,76.9375)"/>
<path d="M0 0 C33.97085457 -0.30604373 33.97085457 -0.30604373 42 5 C44 7 44 7 44.375 9.875 C44 13 44 13 42.4375 15.25 C37.42396592 18.84946036 31.87913258 19.25106223 25.859375 19.23046875 C24.54195313 19.22853516 23.22453125 19.22660156 21.8671875 19.22460938 C21.19139648 19.21840576 20.51560547 19.21220215 19.81933594 19.20581055 C17.74141296 19.18742402 15.66393382 19.18530217 13.5859375 19.18554688 C3.42185167 19.14061722 3.42185167 19.14061722 0 18 C0 12.06 0 6.12 0 0 Z " fill="#231A18" transform="translate(291,96)"/>
<path d="M0 0 C4.02959257 2.64172814 6.62264179 6.53490263 9.25 10.5 C8.26 10.5 7.27 10.5 6.25 10.5 C6.16363281 11.11488281 6.07726562 11.72976562 5.98828125 12.36328125 C4.81737337 19.09868713 4.81737337 19.09868713 1.6875 21.3125 C0.883125 21.704375 0.07875 22.09625 -0.75 22.5 C-1.62822312 24.58533633 -1.62822312 24.58533633 -1.75 26.5 C-3.07 26.83 -4.39 27.16 -5.75 27.5 C-4.65607999 23.61050663 -2.82173698 21.45019483 -0.0625 18.625 C2.63515965 15.6338711 3.21474148 14.92310218 3.5625 10.75 C1.8123539 6.41630491 0.55400708 5.35517546 -3.75 3.5 C-7.49552918 2.9749764 -11.03425331 2.73664418 -14.75 3.5 C-18.17989884 6.12639107 -19.37194401 8.4798409 -20.375 12.625 C-20.61734375 13.58921875 -20.8596875 14.5534375 -21.109375 15.546875 C-21.70995684 18.3154108 -22.17298935 21.07923043 -22.625 23.875 C-23.47940095 28.39111931 -25.00632744 30.66941831 -28.75 33.5 C-33.47758571 35.0758619 -37.7755068 35.41014158 -42.30078125 33.32421875 C-45.18075993 31.17916286 -46.39911568 29.23023707 -48.0625 26.0625 C-48.57425781 25.11503906 -49.08601562 24.16757812 -49.61328125 23.19140625 C-50.75 20.5 -50.75 20.5 -50.75 16.5 C-50.04875 16.65339844 -49.3475 16.80679687 -48.625 16.96484375 C-45.75247608 17.54795458 -45.75247608 17.54795458 -42.8125 17.75390625 C-34.66572116 18.57481891 -34.66572116 18.57481891 -31.859375 21.41015625 C-30.63685433 23.40202183 -29.61724667 25.33188332 -28.75 27.5 C-26.15703724 23.22271955 -25.77342527 18.37822078 -25.0703125 13.51953125 C-24.26805513 8.67863737 -22.85890663 5.43323793 -19.75 1.5 C-14.0404525 -2.57824821 -6.32872841 -3.15734788 0 0 Z " fill="#F89602" transform="translate(184.75,243.5)"/>
<path d="M0 0 C1.14726562 0.00451172 2.29453125 0.00902344 3.4765625 0.01367188 C6.27606468 0.02533647 9.07553959 0.04326707 11.875 0.0625 C12.37 9.4675 12.37 9.4675 12.875 19.0625 C10.70530855 14.72311709 10.66173896 12.57859592 10.75 7.8125 C10.76804688 6.54921875 10.78609375 5.2859375 10.8046875 3.984375 C10.82789063 3.02015625 10.85109375 2.0559375 10.875 1.0625 C8.93560547 1.17078125 8.93560547 1.17078125 6.95703125 1.28125 C-2.74948166 1.80544655 -12.4016965 2.22218929 -22.125 2.0625 C-21.795 3.0525 -21.465 4.0425 -21.125 5.0625 C-19.89651144 17.05531849 -19.82916698 29.1608301 -19.57275391 41.20385742 C-19.52103619 43.57741571 -19.46390636 45.95079843 -19.40625 48.32421875 C-19.39267456 49.04397385 -19.37909912 49.76372894 -19.3651123 50.5052948 C-19.28186806 53.85163817 -18.97457315 56.83615998 -18.125 60.0625 C-18.04508896 61.86831755 -18.01730177 63.67681809 -18.02734375 65.484375 C-18.03056641 66.50917969 -18.03378906 67.53398437 -18.03710938 68.58984375 C-18.04548828 69.65332031 -18.05386719 70.71679688 -18.0625 71.8125 C-18.06701172 72.89144531 -18.07152344 73.97039062 -18.07617188 75.08203125 C-18.08794273 77.74224383 -18.10438601 80.40234365 -18.125 83.0625 C-13.51668209 82.94388816 -8.90856387 82.81961639 -4.30053711 82.69018555 C-2.73417264 82.64697661 -1.16776533 82.60529209 0.39868164 82.56518555 C2.6552418 82.50714129 4.91158908 82.44354698 7.16796875 82.37890625 C7.86399704 82.36219376 8.56002533 82.34548126 9.27714539 82.32826233 C11.99938592 82.2460344 14.60237886 82.11961189 17.2722168 81.56030273 C21.23860759 80.80169934 25.19658032 80.84474618 29.2265625 80.78125 C30.12241058 80.76284058 31.01825867 80.74443115 31.94125366 80.72546387 C35.76280148 80.64701848 39.58451653 80.57895778 43.40625 80.51025391 C46.20060909 80.45852409 48.99481807 80.40129384 51.7890625 80.34375 C53.08754623 80.32338684 53.08754623 80.32338684 54.41226196 80.3026123 C55.21674774 80.28589478 56.02123352 80.26917725 56.85009766 80.25195312 C57.55671539 80.23942505 58.26333313 80.22689697 58.99136353 80.21398926 C61.10155933 80.11984624 61.10155933 80.11984624 63.875 79.0625 C67.87883132 78.92850297 71.8677355 79.01941113 75.875 79.0625 C75.875 73.4525 75.875 67.8425 75.875 62.0625 C74.885 62.0625 73.895 62.0625 72.875 62.0625 C72.875 62.7225 72.875 63.3825 72.875 64.0625 C59.015 63.7325 45.155 63.4025 30.875 63.0625 C30.875 62.7325 30.875 62.4025 30.875 62.0625 C46.54635482 60.98171691 62.17125842 60.96133058 77.875 61.0625 C77.875 67.6625 77.875 74.2625 77.875 81.0625 C59.63765673 82.49948311 41.44547161 83.49975633 23.15942383 84.06787109 C19.25516524 84.18928296 15.35122754 84.31864172 11.44726562 84.44921875 C8.92188964 84.5316995 6.39649947 84.61374722 3.87109375 84.6953125 C2.72515244 84.73278595 1.57921112 84.7702594 0.39854431 84.80886841 C-6.44520098 85.01974091 -13.27810039 85.10784122 -20.125 85.0625 C-20.51776771 75.14390509 -20.90904991 65.22525279 -21.29845428 55.30652523 C-21.47933107 50.70049628 -21.66071267 46.09448839 -21.84326172 41.48852539 C-22.01952779 37.04061536 -22.19444983 32.5926543 -22.36845398 28.14465523 C-22.43495673 26.45064993 -22.50193754 24.75666332 -22.56941223 23.06269646 C-22.6640905 20.6836916 -22.75704363 18.30462497 -22.84960938 15.92553711 C-22.87766159 15.23069717 -22.90571381 14.53585724 -22.93461609 13.81996155 C-23.09796821 9.56498581 -23.14935937 5.32040148 -23.125 1.0625 C-15.39714866 0.09296618 -7.78166099 -0.05881488 0 0 Z " fill="#E1921D" transform="translate(133.125,76.9375)"/>
<path d="M0 0 C3.27798068 3.27798068 2.45851611 7.56246415 2.65625 12.03125 C2.70201329 15.11606771 2.70201329 15.11606771 5 17 C7.54597817 17.02807319 7.54597817 17.02807319 10 16 C11.26918124 13.97636604 11.26918124 13.97636604 12.10546875 11.53515625 C13.61804464 8.54730086 14.28176735 7.2709261 17.45556641 6.07373047 C20.42914513 5.66599246 23.31195615 5.49701175 26.3125 5.4375 C27.33923828 5.38271484 28.36597656 5.32792969 29.42382812 5.27148438 C31.95008058 5.14223425 34.47119084 5.05314095 37 5 C37 6.65 37 8.3 37 10 C36.505 8.515 36.505 8.515 36 7 C34.21142578 7.2165625 34.21142578 7.2165625 32.38671875 7.4375 C30.82032354 7.62509224 29.25391668 7.81258717 27.6875 8 C26.90181641 8.09539062 26.11613281 8.19078125 25.30664062 8.2890625 C24.1706543 8.42441406 24.1706543 8.42441406 23.01171875 8.5625 C22.31522217 8.64628906 21.61872559 8.73007812 20.90112305 8.81640625 C19 9 19 9 16 9 C16.83793454 17.37934544 19.55561939 23.65771297 23.5390625 30.93359375 C25 34 25 34 25 38 C21.59890919 38.35661923 18.39249888 38.49060753 15 38 C12.61613493 35.88100882 11.54683438 34.63410202 10 32 C9.58234375 31.37351562 9.1646875 30.74703125 8.734375 30.1015625 C3.74130997 22.49165014 -0.15400917 15.55492608 -0.0625 6.3125 C-0.05347656 5.13300781 -0.04445312 3.95351563 -0.03515625 2.73828125 C-0.02355469 1.83464844 -0.01195312 0.93101562 0 0 Z " fill="#E6900F" transform="translate(243,305)"/>
<path d="M0 0 C0.33 0 0.66 0 1 0 C1 1.98 1 3.96 1 6 C2.11375 5.95875 3.2275 5.9175 4.375 5.875 C8 6 8 6 10 8 C9.828125 9.99609375 9.828125 9.99609375 9.25 12.4375 C8.16891343 17.22217993 7.28550537 22.01185679 6.46484375 26.84765625 C6 29 6 29 5 30 C3.50261876 30.0979057 2.00057108 30.12974864 0.5 30.125 C-0.3146875 30.12757813 -1.129375 30.13015625 -1.96875 30.1328125 C-4 30 -4 30 -5 29 C-5.33237257 22.76271051 -4.42484058 17.19660786 -3.0625 11.125 C-2.78889648 9.84496094 -2.78889648 9.84496094 -2.50976562 8.5390625 C-1.15420387 2.30840774 -1.15420387 2.30840774 0 0 Z " fill="#EF930B" transform="translate(158,313)"/>
<path d="M0 0 C4.02959257 2.64172814 6.62264179 6.53490263 9.25 10.5 C8.26 10.5 7.27 10.5 6.25 10.5 C6.16363281 11.11488281 6.07726562 11.72976562 5.98828125 12.36328125 C4.81737337 19.09868713 4.81737337 19.09868713 1.6875 21.3125 C0.883125 21.704375 0.07875 22.09625 -0.75 22.5 C-1.62822312 24.58533633 -1.62822312 24.58533633 -1.75 26.5 C-3.07 26.83 -4.39 27.16 -5.75 27.5 C-4.65607999 23.61050663 -2.82173698 21.45019483 -0.0625 18.625 C2.63515965 15.6338711 3.21474148 14.92310218 3.5625 10.75 C1.8123539 6.41630491 0.55400708 5.35517546 -3.75 3.5 C-7.49552918 2.9749764 -11.03425331 2.73664418 -14.75 3.5 C-18.17989884 6.12639107 -19.37194401 8.4798409 -20.375 12.625 C-20.61605469 13.58792969 -20.85710937 14.55085938 -21.10546875 15.54296875 C-21.71357781 18.33289941 -22.20802187 21.12317182 -22.6875 23.9375 C-23.42317438 27.89253576 -24.39337374 30.03847408 -27.75 32.5 C-29.00519667 27.98129197 -29.00519667 27.98129197 -27.859375 25.8203125 C-26.02198282 21.97731618 -25.67638025 17.70761481 -25.0703125 13.51953125 C-24.26805513 8.67863737 -22.85890663 5.43323793 -19.75 1.5 C-14.0404525 -2.57824821 -6.32872841 -3.15734788 0 0 Z " fill="#DA8E19" transform="translate(184.75,243.5)"/>
<path d="M0 0 C2.63773024 0.36148766 3.74646633 0.70801264 5.51953125 2.75 C8.33578606 7.65079388 9.72859687 11.26910979 8.73046875 16.921875 C7.53161577 20.33251558 5.47633093 22.39667774 3 25 C3 25.66 3 26.32 3 27 C3.99 27.66 4.98 28.32 6 29 C3.03 28.67 0.06 28.34 -3 28 C-2.67 27.34 -2.34 26.68 -2 26 C-1.34 26 -0.68 26 0 26 C-0.33 23.36 -0.66 20.72 -1 18 C-3.30652512 18.53227503 -5.41544112 19.16320901 -7.625 20.03125 C-11.67029543 21.19239961 -15.19956854 21.22315662 -19.375 21.125 C-20.47908203 21.11146484 -20.47908203 21.11146484 -21.60546875 21.09765625 C-23.4037888 21.07430144 -25.20193911 21.03843836 -27 21 C-27 20.67 -27 20.34 -27 20 C-25.54980469 19.97873047 -25.54980469 19.97873047 -24.0703125 19.95703125 C-15.78254039 19.6534198 -8.99147837 18.98725457 -2 14 C-0.64908472 11.29816945 -0.66141942 8.88191794 -0.4375 5.875 C-0.35371094 4.77929688 -0.26992188 3.68359375 -0.18359375 2.5546875 C-0.09271484 1.29011719 -0.09271484 1.29011719 0 0 Z " fill="#EE930A" transform="translate(317,199)"/>
<path d="M0 0 C1.6256807 0.30893932 3.25052748 0.6222695 4.875 0.9375 C5.77992188 1.11152344 6.68484375 1.28554688 7.6171875 1.46484375 C10 2 10 2 12 3 C12.49484986 39.21032142 10.67352069 74.22951394 5 110 C4.67 110 4.34 110 4 110 C3.65193714 101.14373396 4.14243304 93.05500811 5.8581543 84.37084961 C7.04349103 78.23734754 7.5086875 72.21156846 7.7890625 65.9765625 C8 63 8 63 9 60 C9.08840088 58.14405272 9.11762704 56.28504883 9.11352539 54.42700195 C9.11341209 52.71556755 9.11341209 52.71556755 9.11329651 50.96955872 C9.10813522 49.73823715 9.10297394 48.50691559 9.09765625 47.23828125 C9.0962413 45.97735153 9.09482635 44.71642181 9.09336853 43.4172821 C9.08871575 40.06848291 9.07973342 36.71975189 9.06866455 33.37097168 C9.05842687 29.95239857 9.05386586 26.53381841 9.04882812 23.11523438 C9.03779099 16.41013739 9.02104686 9.70507263 9 3 C6.36 3 3.72 3 1 3 C0.67 2.01 0.34 1.02 0 0 Z " fill="#E1A541" transform="translate(463,26)"/>
<path d="M0 0 C5.28 0 10.56 0 16 0 C16 0.33 16 0.66 16 1 C14.94949463 1.15557373 13.89898926 1.31114746 12.81665039 1.47143555 C-14.05747518 5.43732165 -14.05747518 5.43732165 -40.73608398 10.52612305 C-41.65204346 10.72117432 -42.56800293 10.91622559 -43.51171875 11.1171875 C-44.28990967 11.28847168 -45.06810059 11.45975586 -45.86987305 11.63623047 C-48 12 -48 12 -52 12 C-51.90912109 13.20011719 -51.81824219 14.40023437 -51.72460938 15.63671875 C-51.38615153 20.11680198 -51.05163186 24.59717227 -50.71826172 29.07763672 C-50.57381768 31.01163573 -50.42832561 32.94555679 -50.28173828 34.87939453 C-50.07043998 37.66939454 -49.86299287 40.45965917 -49.65625 43.25 C-49.59062866 44.10553467 -49.52500732 44.96106934 -49.45739746 45.8425293 C-49.08624514 50.91121037 -48.93851998 55.91765167 -49 61 C-51.48949325 56.52220279 -51.69608464 52.28513169 -52.125 47.25 C-52.20991699 46.29657715 -52.29483398 45.3431543 -52.38232422 44.36083984 C-53.27835505 33.24969697 -53.19066535 22.13778994 -53 11 C-44.57142857 7.59821429 -44.57142857 7.59821429 -40 7.8125 C-39.236875 7.83957031 -38.47375 7.86664063 -37.6875 7.89453125 C-37.130625 7.92933594 -36.57375 7.96414062 -36 8 C-36 7.34 -36 6.68 -36 6 C-35.04287109 5.90912109 -35.04287109 5.90912109 -34.06640625 5.81640625 C-33.24011719 5.73261719 -32.41382812 5.64882813 -31.5625 5.5625 C-30.73878906 5.48128906 -29.91507813 5.40007813 -29.06640625 5.31640625 C-27.01337975 5.21069185 -27.01337975 5.21069185 -26 4 C-23.81360547 3.92741054 -21.62499611 3.91626217 -19.4375 3.9375 C-17.64119141 3.95103516 -17.64119141 3.95103516 -15.80859375 3.96484375 C-14.88175781 3.97644531 -13.95492187 3.98804688 -13 4 C-13 3.34 -13 2.68 -13 2 C-8.71 2 -4.42 2 0 2 C0 1.34 0 0.68 0 0 Z " fill="#DD9228" transform="translate(88,46)"/>
<path d="M0 0 C0.66 0 1.32 0 2 0 C2.02505615 0.60473145 2.0501123 1.20946289 2.07592773 1.83251953 C2.19263006 4.5968562 2.31501734 7.36091366 2.4375 10.125 C2.47681641 11.07632813 2.51613281 12.02765625 2.55664062 13.0078125 C2.59853516 13.9359375 2.64042969 14.8640625 2.68359375 15.8203125 C2.72025146 16.66867676 2.75690918 17.51704102 2.79467773 18.39111328 C2.95941053 21.04752188 2.95941053 21.04752188 3.51367188 23.82226562 C4.08763548 27.57262217 4.12516524 31.24105935 4.09765625 35.0234375 C4.09664917 35.68577393 4.09564209 36.34811035 4.09460449 37.03051758 C4.08941589 39.47869628 4.07545499 41.92685008 4.0625 44.375 C4.041875 49.86125 4.02125 55.3475 4 61 C15.22 61 26.44 61 38 61 C38 61.33 38 61.66 38 62 C35.18776931 62.17287038 32.37537782 62.33826499 29.5625 62.5 C28.79873047 62.54769531 28.03496094 62.59539062 27.24804688 62.64453125 C18.83452928 63.11758043 10.42338242 63.04423336 2 63 C1.97494385 62.02353516 1.9498877 61.04707031 1.92407227 60.04101562 C1.8282083 56.33569385 1.72846375 52.63048407 1.62768555 48.92529297 C1.58499917 47.3371039 1.54329499 45.74888806 1.50268555 44.16064453 C1.25747753 34.60055912 0.87623077 25.07351369 0.20507812 15.53320312 C-0.09557574 10.35336651 -0.08840092 5.18618745 0 0 Z " fill="#4D2702" transform="translate(145,77)"/>
<path d="M0 0 C-5.445 2.475 -5.445 2.475 -11 5 C-11.61898707 27.42964138 -11.61898707 27.42964138 -10 49.75 C-8.5397737 60.13611662 -8.8180273 70.53237016 -9 81 C-9.33 81 -9.66 81 -10 81 C-13.01762098 54.6252436 -13.3516211 28.5248533 -13 2 C-11.5882217 1.46605821 -10.17029756 0.94834896 -8.75 0.4375 C-7.96109375 0.14746094 -7.1721875 -0.14257812 -6.359375 -0.44140625 C-4 -1 -4 -1 0 0 Z " fill="#E4AF58" transform="translate(14,27)"/>
<path d="M0 0 C2.34204109 0.93681643 3.74342836 1.64437222 5.234375 3.7109375 C6.25119122 6.75101049 6.26445072 9.42416496 6.25 12.625 C6.25515625 13.77226562 6.2603125 14.91953125 6.265625 16.1015625 C6 19 6 19 4 21 C3.7525 20.030625 3.505 19.06125 3.25 18.0625 C2.63125 16.5465625 2.63125 16.5465625 2 15 C-0.03243548 14.03122943 -0.03243548 14.03122943 -2 14 C-2.33 15.32 -2.66 16.64 -3 18 C-4.65 18.33 -6.3 18.66 -8 19 C-7.4225 18.278125 -6.845 17.55625 -6.25 16.8125 C-2.85726996 11.80822319 -1.60608126 5.75797218 0 0 Z " fill="#ED9510" transform="translate(331,207)"/>
<path d="M0 0 C4.35740041 5.47238228 7.72682271 11.72187249 8.3125 18.75 C6.3745459 23.54874348 3.49772502 26.45233758 -1 29 C-7.20554643 29.40692108 -11.89282568 26.89127057 -17.38671875 24.15625 C-19.94439487 23.02460257 -22.24669303 22.43656039 -25 22 C-25 21.67 -25 21.34 -25 21 C-19.03847043 20.35200766 -15.71951355 21.99709755 -10.51171875 24.8203125 C-6.95735306 26.48970354 -3.89752846 26.78347064 0 27 C-0.20625 26.401875 -0.4125 25.80375 -0.625 25.1875 C-1 23 -1 23 1 20 C1.66 20 2.32 20 3 20 C2.67 19.01 2.34 18.02 2 17 C2.66 16.67 3.32 16.34 4 16 C3.67 13.36 3.34 10.72 3 8 C2.34 8 1.68 8 1 8 C0.67 5.36 0.34 2.72 0 0 Z " fill="#DC8D17" transform="translate(334,249)"/>
<path d="M0 0 C2.33333333 0 4.66666667 0 7 0 C7 0.66 7 1.32 7 2 C7.99 2 8.98 2 10 2 C14 8.5 14 8.5 14 13 C10.7 13 7.4 13 4 13 C4 11.68 4 10.36 4 9 C3.67 8.34 3.34 7.68 3 7 C2.01 7.495 2.01 7.495 1 8 C1 6.68 1 5.36 1 4 C0.34 4 -0.32 4 -1 4 C-0.67 2.68 -0.34 1.36 0 0 Z " fill="#F79502" transform="translate(254,330)"/>
<path d="M0 0 C0.66 0 1.32 0 2 0 C2 0.66 2 1.32 2 2 C0.59472656 3.28100586 0.59472656 3.28100586 -1.359375 4.71484375 C-2.41511719 5.49698242 -2.41511719 5.49698242 -3.4921875 6.29492188 C-4.23726563 6.83697266 -4.98234375 7.37902344 -5.75 7.9375 C-6.47960937 8.47568359 -7.20921875 9.01386719 -7.9609375 9.56835938 C-9.33085679 10.57836351 -10.70272907 11.58572779 -12.07714844 12.58959961 C-13.44418195 13.59231071 -14.78926781 14.62524639 -16.11816406 15.67797852 C-18 17 -18 17 -20 17 C-20.185625 17.556875 -20.37125 18.11375 -20.5625 18.6875 C-22.633055 22.01839283 -25.5192634 24.20822841 -29 26 C-30.32 26 -31.64 26 -33 26 C-33.66 27.32 -34.32 28.64 -35 30 C-35.66 30 -36.32 30 -37 30 C-37.33 30.99 -37.66 31.98 -38 33 C-39.98 32.67 -41.96 32.34 -44 32 C-39.36508235 28.08330306 -34.32038189 24.87454523 -29.25 21.5625 C-13.89151107 11.72981557 -13.89151107 11.72981557 0 0 Z " fill="#D98F22" transform="translate(294,392)"/>
<path d="M0 0 C3.3964735 3.82363734 4.83810439 8.35575237 6.625 13.0625 C9.80294937 21.25357387 13.33607238 29.19518398 17.20556641 37.08227539 C17.75349854 38.20557251 17.75349854 38.20557251 18.3125 39.3515625 C18.80169922 40.33890381 18.80169922 40.33890381 19.30078125 41.34619141 C20 43 20 43 20 45 C18 45 18 45 15.375 42.875 C12.48821454 39.38047023 12.9946395 38.36880851 13 34 C12.06404811 31.01683452 12.06404811 31.01683452 10.6875 28.1875 C10.25824219 27.23230469 9.82898438 26.27710938 9.38671875 25.29296875 C8.15095171 22.69024501 8.15095171 22.69024501 5 22 C2.62441418 17.11685136 1.88525022 12.33406929 1.25390625 6.97265625 C0.95127045 4.62140887 0.50648049 2.31533939 0 0 Z " fill="#E28F21" transform="translate(67,229)"/>
<path d="M0 0 C0.69996094 0.15082031 1.39992187 0.30164063 2.12109375 0.45703125 C5.00434816 1.03942644 5.00434816 1.03942644 7.97265625 1.32421875 C16.06900233 2.27612796 16.06900233 2.27612796 18.703125 4.32421875 C20.40146504 6.69830677 21.05607385 8.46729841 20.75 11.375 C20.5025 11.91125 20.255 12.4475 20 13 C18.68 12.67 17.36 12.34 16 12 C16 10.02 16 8.04 16 6 C10.06 5.01 10.06 5.01 4 4 C4.309375 4.9075 4.61875 5.815 4.9375 6.75 C6 10 6 10 6.4375 12.3125 C6.623125 12.869375 6.80875 13.42625 7 14 C10.16245541 15.0541518 12.86948218 15.31275672 16.1875 15.5625 C17.27417969 15.64628906 18.36085937 15.73007812 19.48046875 15.81640625 C20.31191406 15.87699219 21.14335937 15.93757813 22 16 C18.37087045 18.4194197 15.22623287 18.71985285 11 18 C6.6668764 15.99601328 4.8858096 13.74894489 2.6875 9.5625 C1.91986328 8.14130859 1.91986328 8.14130859 1.13671875 6.69140625 C0 4 0 4 0 0 Z " fill="#DA8F1E" transform="translate(134,260)"/>
<path d="M0 0 C0.33 0 0.66 0 1 0 C1.27298035 10.05275415 0.57687237 19.75411033 -0.59912109 29.72290039 C-0.8749949 32.06245675 -1.13964312 34.40307195 -1.40234375 36.74414062 C-2.4014944 45.53201432 -3.56902192 54.27064852 -5 63 C-5.33 63 -5.66 63 -6 63 C-6.34806286 54.14373396 -5.85756696 46.05500811 -4.1418457 37.37084961 C-2.95650897 31.23734754 -2.4913125 25.21156846 -2.2109375 18.9765625 C-2 16 -2 16 -1 13 C-0.77548542 10.77425665 -0.59217122 8.54418481 -0.4375 6.3125 C-0.35371094 5.13300781 -0.26992188 3.95351562 -0.18359375 2.73828125 C-0.12300781 1.83464844 -0.06242187 0.93101563 0 0 Z " fill="#E9B25B" transform="translate(473,73)"/>
<path d="M0 0 C0.33 0 0.66 0 1 0 C2.10270532 6.45870261 2.3328303 12.89639379 2.5625 19.4375 C2.6049585 20.58589355 2.64741699 21.73428711 2.69116211 22.91748047 C2.99472651 31.61640251 3.11832477 40.29655546 3 49 C0.41492687 46.41492687 0.08410621 44.47816056 -0.12025452 40.88653564 C-0.11803391 40.13152771 -0.11581329 39.37651978 -0.11352539 38.59863281 C-0.11344986 37.7380426 -0.11337433 36.87745239 -0.11329651 35.99078369 C-0.10813522 35.07085632 -0.10297394 34.15092896 -0.09765625 33.203125 C-0.0962413 32.25435486 -0.09482635 31.30558472 -0.09336853 30.32806396 C-0.08777742 27.30201038 -0.07522652 24.27603117 -0.0625 21.25 C-0.05748385 19.19661565 -0.05292115 17.14323014 -0.04882812 15.08984375 C-0.03781089 10.05986724 -0.02055233 5.02994622 0 0 Z " fill="#482403" transform="translate(109,78)"/>
<path d="M0 0 C0.33 0 0.66 0 1 0 C1 9.24 1 18.48 1 28 C4.63 27.67 8.26 27.34 12 27 C14.90705092 26.93793657 17.78381718 26.90123883 20.6875 26.9375 C21.40099609 26.94201172 22.11449219 26.94652344 22.84960938 26.95117188 C24.56644474 26.96269426 26.28323543 26.9806137 28 27 C28 27.33 28 27.66 28 28 C23.5436997 28.55937196 19.0848217 29.09449702 14.625 29.625 C12.71847656 29.86476562 12.71847656 29.86476562 10.7734375 30.109375 C9.56171875 30.25117188 8.35 30.39296875 7.1015625 30.5390625 C5.42054443 30.74329834 5.42054443 30.74329834 3.70556641 30.95166016 C2.36631104 30.97558838 2.36631104 30.97558838 1 31 C-1 29 -1 29 -1.13525391 26.11083984 C-1.08288574 24.90637207 -1.03051758 23.7019043 -0.9765625 22.4609375 C-0.925 21.15898437 -0.8734375 19.85703125 -0.8203125 18.515625 C-0.75543042 17.13540621 -0.69032333 15.75519798 -0.625 14.375 C-0.56676301 12.98701851 -0.50945967 11.5989975 -0.453125 10.2109375 C-0.31128555 6.80679074 -0.15983765 3.40334154 0 0 Z " fill="#4B2502" transform="translate(112,134)"/>
<path d="M0 0 C2.16108871 3.24163306 2.80917962 5.67009209 3.75 9.4375 C5.37095376 15.74853895 7.1328198 22.0073298 9 28.25 C9.25499268 29.10384277 9.50998535 29.95768555 9.77270508 30.83740234 C11.43326242 36.3215485 13.26758198 41.69505386 15.43359375 47.00390625 C16 49 16 49 15 52 C13.74335022 49.09399739 13 47.20395416 13 44 C12.01 43.67 11.02 43.34 10 43 C9.896875 42.030625 9.79375 41.06125 9.6875 40.0625 C9.15651962 36.33815871 8.07168482 32.95967589 6.828125 29.41796875 C5.64718719 25.96985317 4.65383253 22.47141656 3.6484375 18.96875 C3.17054476 17.02040846 3.17054476 17.02040846 2 16 C1.60001092 14.25990151 1.25462198 12.50709069 0.9375 10.75 C0.76089844 9.79609375 0.58429687 8.8421875 0.40234375 7.859375 C0.02694617 5.1915009 -0.07360439 2.68901371 0 0 Z " fill="#D28C29" transform="translate(51,177)"/>
<path d="M0 0 C0.80244141 0.04833984 1.60488281 0.09667969 2.43164062 0.14648438 C3.68170898 0.2305957 3.68170898 0.2305957 4.95703125 0.31640625 C6.22450195 0.3947168 6.22450195 0.3947168 7.51757812 0.47460938 C9.60189424 0.60414314 11.68576307 0.74083802 13.76953125 0.87890625 C13.76953125 1.20890625 13.76953125 1.53890625 13.76953125 1.87890625 C12.89441895 1.92901855 12.01930664 1.97913086 11.11767578 2.03076172 C7.04298939 2.2669211 2.96865514 2.50825233 -1.10546875 2.75390625 C-1.83809937 2.7980365 -2.57072998 2.84216675 -3.32556152 2.88763428 C-12.4399703 3.44309759 -21.50589787 4.13330764 -30.56933594 5.26464844 C-36.47230329 5.97742665 -42.29362611 6.08844187 -48.23046875 5.87890625 C-48.23046875 5.54890625 -48.23046875 5.21890625 -48.23046875 4.87890625 C-46.29880859 4.67974609 -46.29880859 4.67974609 -44.328125 4.4765625 C-42.64971513 4.29840726 -40.97133102 4.12000933 -39.29296875 3.94140625 C-38.44283203 3.85439453 -37.59269531 3.76738281 -36.71679688 3.67773438 C-35.90791016 3.59072266 -35.09902344 3.50371094 -34.265625 3.4140625 C-33.51676025 3.33551025 -32.76789551 3.25695801 -31.99633789 3.17602539 C-30.20906862 3.05083245 -30.20906862 3.05083245 -29.23046875 1.87890625 C-27.63274404 1.73376057 -26.02917194 1.651784 -24.42578125 1.59765625 C-23.44996094 1.56027344 -22.47414062 1.52289063 -21.46875 1.484375 C-20.44136719 1.44957031 -19.41398437 1.41476563 -18.35546875 1.37890625 C-16.3370983 1.31001118 -14.31885467 1.23726314 -12.30078125 1.16015625 C-11.40117676 1.12986328 -10.50157227 1.09957031 -9.57470703 1.06835938 C-6.15828445 0.79225607 -3.48830393 -0.2226577 0 0 Z " fill="#D78D1F" transform="translate(152.23046875,40.12109375)"/>
<path d="M0 0 C0.94037109 -0.00128906 1.88074219 -0.00257813 2.84960938 -0.00390625 C3.82091797 -0.00003906 4.79222656 0.00382813 5.79296875 0.0078125 C6.75267578 0.00394531 7.71238281 0.00007812 8.70117188 -0.00390625 C14.22142926 0.00362994 19.51997249 0.31858465 24.98046875 1.1328125 C24.98046875 1.4628125 24.98046875 1.7928125 24.98046875 2.1328125 C7.97085469 2.87718109 -8.99355737 3.28506017 -26.01953125 3.1328125 C-26.01953125 2.8028125 -26.01953125 2.4728125 -26.01953125 2.1328125 C-24.37404297 2.04193359 -24.37404297 2.04193359 -22.6953125 1.94921875 C-21.24087471 1.86476752 -19.7864482 1.78012184 -18.33203125 1.6953125 C-17.61080078 1.65599609 -16.88957031 1.61667969 -16.14648438 1.57617188 C-15.44072266 1.53427734 -14.73496094 1.49238281 -14.0078125 1.44921875 C-13.36368408 1.41256104 -12.71955566 1.37590332 -12.0559082 1.33813477 C-9.94067982 1.16130916 -9.94067982 1.16130916 -7.58398438 0.62133789 C-4.99223492 0.12761258 -2.63541804 0.00351959 0 0 Z " fill="#CD8519" transform="translate(158.01953125,157.8671875)"/>
<path d="M0 0 C0.33 0.66 0.66 1.32 1 2 C0.29296875 3.91015625 0.29296875 3.91015625 -0.8125 6.0625 C-1.16957031 6.77535156 -1.52664063 7.48820312 -1.89453125 8.22265625 C-3 10 -3 10 -5 11 C-5.33 11.99 -5.66 12.98 -6 14 C-6.99 14.495 -6.99 14.495 -8 15 C-8.2165625 15.9590625 -8.2165625 15.9590625 -8.4375 16.9375 C-9 19 -9 19 -12 21 C-12.28875 22.155 -12.5775 23.31 -12.875 24.5 C-13.24625 25.655 -13.6175 26.81 -14 28 C-16.5625 29.3125 -16.5625 29.3125 -19 30 C-19.33 30.66 -19.66 31.32 -20 32 C-20.66 32 -21.32 32 -22 32 C-20.23418566 27.95376258 -17.56701779 24.57315973 -14.9375 21.0625 C-9.80388893 14.14283965 -4.85923729 7.11488324 0 0 Z " fill="#D98D1D" transform="translate(369,307)"/>
<path d="M0 0 C1.37913361 3.83092668 0.78648334 7.0675833 0 11 C-0.99 12.485 -0.99 12.485 -2 14 C-2.34475552 16.11305408 -2.34475552 16.11305408 -2.4375 18.375 C-2.80253313 22.3327276 -3.63796302 24.72948726 -6 28 C-6.495 28.886875 -6.99 29.77375 -7.5 30.6875 C-9 33 -9 33 -12 35 C-12.99 34.34 -13.98 33.68 -15 33 C-14.0925 32.38125 -13.185 31.7625 -12.25 31.125 C-5.88339912 25.77945775 -4.73561811 17.37443827 -3.50390625 9.5625 C-2.81688269 6.06879881 -1.55951144 3.18990976 0 0 Z " fill="#DE9019" transform="translate(178,271)"/>
<path d="M0 0 C3.60305737 3.02256479 4.07985503 6.3994046 5.15625 10.8203125 C5.4346875 11.53960937 5.713125 12.25890625 6 13 C6.99 13.33 7.98 13.66 9 14 C8.98839844 14.61746094 8.97679687 15.23492187 8.96484375 15.87109375 C8.90300337 21.67525544 9.25721044 27.24338088 10 33 C7.88746862 29.83120293 7.090439 27.30368906 6.0546875 23.65234375 C5.70019531 22.40775391 5.34570312 21.16316406 4.98046875 19.88085938 C4.70855713 18.91055786 4.70855713 18.91055786 4.43115234 17.9206543 C3.8755512 15.93946549 3.31149461 13.96083367 2.74609375 11.98242188 C0 2.28056319 0 2.28056319 0 0 Z " fill="#ECAD4B" transform="translate(19,186)"/>
<path d="M0 0 C0.80824219 0.45632813 1.61648437 0.91265625 2.44921875 1.3828125 C3.51785156 1.95773437 4.58648437 2.53265625 5.6875 3.125 C7.27111328 3.99511719 7.27111328 3.99511719 8.88671875 4.8828125 C11.90493191 6.29907257 11.90493191 6.29907257 14.6953125 5.28125 C15.45585937 4.8584375 16.21640625 4.435625 17 4 C22.88461538 1 22.88461538 1 25 1 C25 1.66 25 2.32 25 3 C24.34 3 23.68 3 23 3 C22.67 3.99 22.34 4.98 22 6 C20.5625 7.6875 20.5625 7.6875 19 9 C18.34 9 17.68 9 17 9 C17 8.34 17 7.68 17 7 C16.34 7 15.68 7 15 7 C15 7.66 15 8.32 15 9 C7.60514019 8.50700935 7.60514019 8.50700935 4.6875 6.0625 C4.130625 5.381875 3.57375 4.70125 3 4 C2.01 3.34 1.02 2.68 0 2 C0 1.34 0 0.68 0 0 Z " fill="#E28F1E" transform="translate(225,423)"/>
<path d="M0 0 C9.86675685 0.64700045 19.3678065 2.87379712 29 5 C29 5.33 29 5.66 29 6 C28.24074219 6.06058594 27.48148437 6.12117188 26.69921875 6.18359375 C25.70535156 6.26738281 24.71148437 6.35117187 23.6875 6.4375 C22.70136719 6.51871094 21.71523438 6.59992187 20.69921875 6.68359375 C17.90624401 6.91812559 17.90624401 6.91812559 15 8 C14.67 7.34 14.34 6.68 14 6 C14.99 6 15.98 6 17 6 C17 5.34 17 4.68 17 4 C11.91696314 3.88679144 11.91696314 3.88679144 7 5 C7 4.01 7 3.02 7 2 C5.02 2 3.04 2 1 2 C0.67 1.34 0.34 0.68 0 0 Z M5 4 C5.99 4.495 5.99 4.495 7 5 C6.67 5.66 6.34 6.32 6 7 C5.67 6.01 5.34 5.02 5 4 Z " fill="#F1B353" transform="translate(417,16)"/>
<path d="M0 0 C0.33 0.66 0.66 1.32 1 2 C1.66 2.33 2.32 2.66 3 3 C-3.81053373 8.34668425 -10.52271457 13.60159681 -18 18 C-18 16.68 -18 15.36 -18 14 C-15 12 -15 12 -11 12 C-11 11.34 -11 10.68 -11 10 C-10.01 10 -9.02 10 -8 10 C-8 8.68 -8 7.36 -8 6 C-7.34 6 -6.68 6 -6 6 C-4.36323743 4.0399719 -4.36323743 4.0399719 -3 2 C-2.01 2.33 -1.02 2.66 0 3 C0 2.01 0 1.02 0 0 Z " fill="#EFAA43" transform="translate(304,422)"/>
<path d="M0 0 C-3.55376724 1.54708629 -6.8658044 2.44206101 -10.6875 3.0625 C-14.46993359 3.64277777 -14.46993359 3.64277777 -18 5 C-20.55807762 4.91089842 -23.0762601 4.76705754 -25.625 4.5625 C-26.33140625 4.51029297 -27.0378125 4.45808594 -27.765625 4.40429688 C-29.51079987 4.27458793 -31.25545725 4.13795046 -33 4 C-33 3.67 -33 3.34 -33 3 C-5.20571927 -1.53725938 -5.20571927 -1.53725938 0 0 Z " fill="#EDB157" transform="translate(93,12)"/>
<path d="M0 0 C3.12122019 2.26997832 5.6742716 4.69525728 8.15625 7.625 C12.05111728 12.12541702 16.20556404 16.31839814 20.4375 20.5 C21.16904297 21.22703125 21.90058594 21.9540625 22.65429688 22.703125 C24.43389824 24.47109499 26.21580918 26.23666378 28 28 C27.01 28.33 26.02 28.66 25 29 C9.82443798 12.95542679 9.82443798 12.95542679 3.5 6.0625 C2.8090625 5.31097656 2.118125 4.55945313 1.40625 3.78515625 C0 2 0 2 0 0 Z " fill="#D0891F" transform="translate(137,349)"/>
<path d="M0 0 C0.66 0 1.32 0 2 0 C0.70892792 7.68567617 -1.01170571 13.82401659 -6 20 C-7.32 19.67 -8.64 19.34 -10 19 C-8.18690997 15.22272911 -6.0926741 11.62730178 -4 8 C-3.01 8 -2.02 8 -1 8 C-0.67 5.36 -0.34 2.72 0 0 Z " fill="#210800" transform="translate(329,207)"/>
<path d="M0 0 C0.99 0.33 1.98 0.66 3 1 C2.34 1 1.68 1 1 1 C1 6.61 1 12.22 1 18 C-0.65 18 -2.3 18 -4 18 C-5.697301 18.76893184 -7.39429452 19.53860497 -9.08642578 20.31884766 C-12.48728849 21.52941246 -15.87107254 21.31475587 -19.4375 21.1875 C-20.16904297 21.17396484 -20.90058594 21.16042969 -21.65429688 21.14648438 C-23.43652422 21.11153874 -25.21836573 21.05774805 -27 21 C-27 20.67 -27 20.34 -27 20 C-25.54980469 19.97873047 -25.54980469 19.97873047 -24.0703125 19.95703125 C-15.78254039 19.6534198 -8.99147837 18.98725457 -2 14 C-0.64908472 11.29816945 -0.66141942 8.88191794 -0.4375 5.875 C-0.35371094 4.77929688 -0.26992188 3.68359375 -0.18359375 2.5546875 C-0.09271484 1.29011719 -0.09271484 1.29011719 0 0 Z " fill="#CF881B" transform="translate(317,199)"/>
<path d="M0 0 C0.33 0 0.66 0 1 0 C1.79262433 4.1039823 2.58392052 8.20821966 3.375 12.3125 C3.59671875 13.46041016 3.8184375 14.60832031 4.046875 15.79101562 C5.40730632 22.85325468 6.73050884 29.92083606 8 37 C7.01 37.495 7.01 37.495 6 38 C4.19238433 31.09490812 2.59352273 24.22395335 1.4296875 17.1796875 C1.09351123 14.96554095 1.09351123 14.96554095 0 13 C-0.07092842 10.7927077 -0.08415025 8.58332548 -0.0625 6.375 C-0.05347656 5.18648437 -0.04445312 3.99796875 -0.03515625 2.7734375 C-0.02355469 1.85820312 -0.01195312 0.94296875 0 0 Z " fill="#D28729" transform="translate(43,137)"/>
<path d="M0 0 C5.14528915 2.86369799 10.05843032 5.95579005 14.9375 9.25 C15.62134766 9.70890625 16.30519531 10.1678125 17.00976562 10.640625 C18.67461112 11.75828351 20.3375124 12.87883719 22 14 C21.01 14.495 21.01 14.495 20 15 C17.8359375 14.22265625 17.8359375 14.22265625 15.375 13.0625 C14.14910156 12.49208984 14.14910156 12.49208984 12.8984375 11.91015625 C12.27195313 11.60980469 11.64546875 11.30945313 11 11 C11 10.34 11 9.68 11 9 C9.02 9.33 7.04 9.66 5 10 C5 8.35 5 6.7 5 5 C4.01 5 3.02 5 2 5 C2 4.01 2 3.02 2 2 C1.34 2 0.68 2 0 2 C0 1.34 0 0.68 0 0 Z " fill="#D99127" transform="translate(197,405)"/>
<path d="M0 0 C0.66 1.32 1.32 2.64 2 4 C2.99 3.67 3.98 3.34 5 3 C5.67291478 6.07618187 6.14582385 9.12425497 6.5 12.25 C6.58529848 15.78778185 6.58529848 15.78778185 8 17 C8.04063832 18.66617115 8.042721 20.33388095 8 22 C5.02797248 19.02797248 3.89843072 15.41132186 2.3125 11.5625 C1.97927734 10.78583984 1.64605469 10.00917969 1.30273438 9.20898438 C0.99271484 8.46068359 0.68269531 7.71238281 0.36328125 6.94140625 C0.07751221 6.25763916 -0.20825684 5.57387207 -0.50268555 4.86938477 C-1 3 -1 3 0 0 Z " fill="#EDAA42" transform="translate(38,241)"/>
<path d="M0 0 C0.99 0.33 1.98 0.66 3 1 C2.11054688 2.04220703 2.11054688 2.04220703 1.203125 3.10546875 C-1.05115806 6.06721298 -2.63209023 8.96636844 -4.25 12.3125 C-4.77078125 13.38113281 -5.2915625 14.44976562 -5.828125 15.55078125 C-6.40820312 16.76314453 -6.40820312 16.76314453 -7 18 C-7.33 18 -7.66 18 -8 18 C-9.05699482 12.71502591 -9.05699482 12.71502591 -9 10 C-7.0625 7.5 -7.0625 7.5 -5 6 C-5.33 5.34 -5.66 4.68 -6 4 C-4.68 4 -3.36 4 -2 4 C-2 3.01 -2 2.02 -2 1 C-1.34 0.67 -0.68 0.34 0 0 Z " fill="#E79211" transform="translate(305,271)"/>
<path d="M0 0 C0 0.33 0 0.66 0 1 C-0.86951294 1.12846313 -0.86951294 1.12846313 -1.7565918 1.25952148 C-4.40042275 1.65087717 -7.04396196 2.04417081 -9.6875 2.4375 C-10.59951172 2.57220703 -11.51152344 2.70691406 -12.45117188 2.84570312 C-13.33740234 2.97783203 -14.22363281 3.10996094 -15.13671875 3.24609375 C-15.94842529 3.36654053 -16.76013184 3.4869873 -17.59643555 3.61108398 C-20.07886456 4.01276092 -22.53729879 4.49212777 -25 5 C-25 5.66 -25 6.32 -25 7 C-25.99 7 -26.98 7 -28 7 C-28 6.34 -28 5.68 -28 5 C-30.64 5 -33.28 5 -36 5 C-36 4.67 -36 4.34 -36 4 C-31.50135882 3.32394521 -27.00089838 2.66084619 -22.5 2 C-21.2315625 1.80921875 -19.963125 1.6184375 -18.65625 1.421875 C-12.37483644 0.50583552 -6.34922684 -0.25653442 0 0 Z " fill="#3A1A02" transform="translate(112,46)"/>
<path d="M0 0 C0 2.62113708 -0.31292445 4.50935112 -1 7 C-1.99 7 -2.98 7 -4 7 C-4.1546875 7.9590625 -4.1546875 7.9590625 -4.3125 8.9375 C-4.539375 9.618125 -4.76625 10.29875 -5 11 C-5.99 11.33 -6.98 11.66 -8 12 C-8 13.32 -8 14.64 -8 16 C-10.64 16.66 -13.28 17.32 -16 18 C-10.81643758 11.86157082 -5.42287737 5.92658337 0 0 Z " fill="#DD9018" transform="translate(337,350)"/>
<path d="M0 0 C-0.88042969 0.24234375 -1.76085937 0.4846875 -2.66796875 0.734375 C-3.82941406 1.06953125 -4.99085938 1.4046875 -6.1875 1.75 C-7.91033203 2.23726563 -7.91033203 2.23726563 -9.66796875 2.734375 C-15.22254481 4.84420225 -18.25010007 7.7896633 -21 13 C-21.5534764 10.92446352 -22 9.15634036 -22 7 C-21.01 7 -20.02 7 -19 7 C-19.33 5.68 -19.66 4.36 -20 3 C-16.87645482 1.95881827 -13.76199751 1.15217647 -10.5625 0.375 C-9.42941406 0.09398437 -8.29632813 -0.18703125 -7.12890625 -0.4765625 C-4.23573099 -0.96056435 -2.70499875 -0.99692829 0 0 Z " fill="#D68E19" transform="translate(190,308)"/>
<path d="M0 0 C3 1 3 1 4.16796875 2.9609375 C4.50441406 3.75757813 4.84085938 4.55421875 5.1875 5.375 C5.70376953 6.56222656 5.70376953 6.56222656 6.23046875 7.7734375 C7 10 7 10 7 13 C7.66 13 8.32 13 9 13 C9 14.32 9 15.64 9 17 C9.66 17.33 10.32 17.66 11 18 C12.0409066 19.64142963 13.04504326 21.30712215 14 23 C13.34 23.66 12.68 24.32 12 25 C9.99338316 21.21179916 7.9958376 17.41888948 6 13.625 C5.42765625 12.54476563 4.8553125 11.46453125 4.265625 10.3515625 C3.72421875 9.3203125 3.1828125 8.2890625 2.625 7.2265625 C2.12226562 6.27346191 1.61953125 5.32036133 1.1015625 4.33837891 C0 2 0 2 0 0 Z " fill="#EAB158" transform="translate(50,272)"/>
<path d="M0 0 C0 0.66 0 1.32 0 2 C-3.64038049 3.65130236 -6.57545914 4.27346665 -10.5625 4.37890625 C-11.60664063 4.41306641 -12.65078125 4.44722656 -13.7265625 4.48242188 C-14.80679688 4.50884766 -15.88703125 4.53527344 -17 4.5625 C-19.14593801 4.62267845 -21.29178139 4.68635585 -23.4375 4.75390625 C-24.38496094 4.77783447 -25.33242187 4.8017627 -26.30859375 4.82641602 C-29.01296024 4.93976909 -29.01296024 4.93976909 -31.671875 5.54272461 C-34.39092384 6.07678276 -36.33801756 5.68450977 -39 5 C-39 4.67 -39 4.34 -39 4 C-31.37858843 2.67119481 -23.70328422 2.6647233 -15.984375 2.48242188 C-14.90414062 2.44826172 -13.82390625 2.41410156 -12.7109375 2.37890625 C-11.24599854 2.34132202 -11.24599854 2.34132202 -9.75146484 2.30297852 C-6.29473475 1.92233947 -3.41069554 0 0 0 Z " fill="#E4951D" transform="translate(233,250)"/>
<path d="M0 0 C8.78607656 0.49389188 17.35001785 1.36822681 26 3 C26 3.33 26 3.66 26 4 C21.38 4 16.76 4 12 4 C12 3.34 12 2.68 12 2 C11.07767578 2.12568359 11.07767578 2.12568359 10.13671875 2.25390625 C9.32847656 2.35574219 8.52023437 2.45757812 7.6875 2.5625 C6.88699219 2.66691406 6.08648437 2.77132813 5.26171875 2.87890625 C3 3 3 3 0 2 C0 1.34 0 0.68 0 0 Z " fill="#F4B85F" transform="translate(390,12)"/>
<path d="M0 0 C0.66 0 1.32 0 2 0 C2 2.31 2 4.62 2 7 C7.61 7 13.22 7 19 7 C19 7.33 19 7.66 19 8 C12.62641289 8.96205088 6.44070471 9.10655578 0 9 C0 6.03 0 3.06 0 0 Z " fill="#D89023" transform="translate(113,153)"/>
<path d="M0 0 C0.33 0 0.66 0 1 0 C1.02701408 2.10409639 1.04640223 4.20829178 1.0625 6.3125 C1.07410156 7.48425781 1.08570313 8.65601562 1.09765625 9.86328125 C1 13 1 13 0 16 C-0.22589806 19.18408693 -0.39304559 22.36153341 -0.51757812 25.55078125 C-0.70771749 29.18854201 -0.93076619 30.89614929 -3 34 C-2.86185777 30.0205267 -2.71320326 26.04151585 -2.5625 22.0625 C-2.52318359 20.92619141 -2.48386719 19.78988281 -2.44335938 18.61914062 C-2.40146484 17.53955078 -2.35957031 16.45996094 -2.31640625 15.34765625 C-2.27974854 14.34742432 -2.24309082 13.34719238 -2.20532227 12.31665039 C-2 10 -2 10 -1 9 C-0.76807135 7.48530552 -0.58784762 5.96245438 -0.4375 4.4375 C-0.35371094 3.61121094 -0.26992188 2.78492187 -0.18359375 1.93359375 C-0.12300781 1.29550781 -0.06242187 0.65742187 0 0 Z " fill="#F2980F" transform="translate(472,73)"/>
<path d="M0 0 C2.97 0.495 2.97 0.495 6 1 C5.67 10.24 5.34 19.48 5 29 C4.67 29 4.34 29 4 29 C4 20.42 4 11.84 4 3 C2.68 2.34 1.36 1.68 0 1 C0 0.67 0 0.34 0 0 Z " fill="#3F1C02" transform="translate(434,57)"/>
<path d="M0 0 C-0.33 0.99 -0.66 1.98 -1 3 C-2.13888672 2.98259766 -2.13888672 2.98259766 -3.30078125 2.96484375 C-4.29464844 2.95582031 -5.28851563 2.94679688 -6.3125 2.9375 C-7.29863281 2.92589844 -8.28476562 2.91429687 -9.30078125 2.90234375 C-12.09963849 2.87670138 -12.09963849 2.87670138 -15 4 C-16.32 3.67 -17.64 3.34 -19 3 C-18.67 6.3 -18.34 9.6 -18 13 C-20.67927341 8.98108988 -20.15601248 6.75838077 -20 2 C-16.92824975 0.97608325 -14.34534876 0.69047004 -11.125 0.4375 C-9.58199219 0.31181641 -9.58199219 0.31181641 -8.0078125 0.18359375 C-5.32784396 0.02001125 -2.68380583 -0.0346617 0 0 Z " fill="#2E1000" transform="translate(279,312)"/>
<path d="M0 0 C0.33 0 0.66 0 1 0 C1.50404219 3.91615756 2.00253233 7.8330023 2.5 11.75 C2.64308594 12.86117187 2.78617188 13.97234375 2.93359375 15.1171875 C3.06894531 16.18710938 3.20429687 17.25703125 3.34375 18.359375 C3.46943359 19.34389648 3.59511719 20.32841797 3.72460938 21.34277344 C4 24 4 24 4 28 C3.34 28 2.68 28 2 28 C-0.26439611 18.63914824 -0.20166126 9.55650317 0 0 Z " fill="#D38D27" transform="translate(39,107)"/>
<path d="M0 0 C1.48285242 0.95262034 2.96118201 1.91228405 4.4375 2.875 C5.67306641 3.67550781 5.67306641 3.67550781 6.93359375 4.4921875 C9 6 9 6 10 8 C9.4225 7.79375 8.845 7.5875 8.25 7.375 C5.48032433 6.91338739 4.35438733 7.57055055 2 9 C2 8.01 2 7.02 2 6 C1.01 6 0.02 6 -1 6 C-0.67 4.02 -0.34 2.04 0 0 Z " fill="#EB930F" transform="translate(187,397)"/>
<path d="M0 0 C0.99 0.66 1.98 1.32 3 2 C2.67 3.32 2.34 4.64 2 6 C-2.62 6 -7.24 6 -12 6 C-12.66 4.68 -13.32 3.36 -14 2 C-13.01 2.33 -12.02 2.66 -11 3 C-8.94106379 3.22325814 -6.87766347 3.40705759 -4.8125 3.5625 C-3.72582031 3.64628906 -2.63914062 3.73007812 -1.51953125 3.81640625 C-0.27236328 3.90728516 -0.27236328 3.90728516 1 4 C0.67 2.68 0.34 1.36 0 0 Z " fill="#B7791B" transform="translate(304,338)"/>
<path d="M0 0 C0.80489089 3.01903711 1.10855119 5.61851889 1.0625 8.75 C1.05347656 9.54921875 1.04445313 10.3484375 1.03515625 11.171875 C1.01775391 12.07679688 1.01775391 12.07679688 1 13 C0.01 12.67 -0.98 12.34 -2 12 C-2.66 14.97 -3.32 17.94 -4 21 C-6 17 -6 17 -5.67626953 14.98535156 C-5.41442871 14.2940918 -5.15258789 13.60283203 -4.8828125 12.890625 C-4.60566406 12.13652344 -4.32851563 11.38242188 -4.04296875 10.60546875 C-3.74003906 9.82816406 -3.43710937 9.05085937 -3.125 8.25 C-2.82980469 7.45722656 -2.53460938 6.66445312 -2.23046875 5.84765625 C-1.50053607 3.89332036 -0.75203302 1.94593855 0 0 Z " fill="#DF8E19" transform="translate(415,208)"/>
<path d="M0 0 C2.64 0 5.28 0 8 0 C2.11253498 4.75526021 -2.49724872 6.62522927 -10 6 C-10.66 5.34 -11.32 4.68 -12 4 C-9.69 4.33 -7.38 4.66 -5 5 C-5 4.34 -5 3.68 -5 3 C-3.02 3 -1.04 3 1 3 C0.67 2.01 0.34 1.02 0 0 Z " fill="#E8AB4A" transform="translate(244,460)"/>
<path d="M0 0 C0.58203125 1.890625 0.58203125 1.890625 1 4 C-0.3125 5.75 -0.3125 5.75 -2 7 C-2.66 7 -3.32 7 -4 7 C-4.20625 7.61875 -4.4125 8.2375 -4.625 8.875 C-6.54775888 11.84653645 -8.66594527 12.13024659 -12 13 C-8.19524578 8.43969176 -4.25030379 4.14910608 0 0 Z " fill="#D38817" transform="translate(320,368)"/>
<path d="M0 0 C0.78375 0.185625 1.5675 0.37125 2.375 0.5625 C4.97089775 1.25962266 4.97089775 1.25962266 7 0 C6.67 1.98 6.34 3.96 6 6 C6.66 6 7.32 6 8 6 C7.67 7.65 7.34 9.3 7 11 C5.66104368 9.33784732 4.32869858 7.67036393 3 6 C2.4225 5.278125 1.845 4.55625 1.25 3.8125 C0 2 0 2 0 0 Z " fill="#ECA32E" transform="translate(85,333)"/>
<path d="M0 0 C0.309375 0.639375 0.61875 1.27875 0.9375 1.9375 C1.8345163 3.93610821 1.8345163 3.93610821 3 5 C3.40249688 7.05361548 3.74692696 9.11874338 4.0625 11.1875 C4.23910156 12.31542969 4.41570313 13.44335938 4.59765625 14.60546875 C4.97364537 17.77764881 5.07261318 20.80986082 5 24 C3.08728087 21.13092131 2.55193893 19.64806979 1.89453125 16.3671875 C1.71599609 15.47902344 1.53746094 14.59085938 1.35351562 13.67578125 C1.17498047 12.75152344 0.99644531 11.82726562 0.8125 10.875 C0.52729492 9.47701172 0.52729492 9.47701172 0.23632812 8.05078125 C-0.77642357 2.91601806 -0.77642357 2.91601806 -1 1 C-0.67 0.67 -0.34 0.34 0 0 Z " fill="#240A00" transform="translate(48,156)"/>
<path d="M0 0 C2.47923801 -0.02685095 4.9581884 -0.04676547 7.4375 -0.0625 C8.14455078 -0.07087891 8.85160156 -0.07925781 9.58007812 -0.08789062 C11.38693559 -0.09653588 13.19387603 -0.05220011 15 0 C15.33 0.33 15.66 0.66 16 1 C17.34747084 1.23075082 18.70377565 1.41153063 20.0625 1.5625 C21.361875 1.706875 22.66125 1.85125 24 2 C24 2.66 24 3.32 24 4 C21.12476286 3.68957083 18.24982273 3.37672481 15.375 3.0625 C14.56675781 2.97548828 13.75851562 2.88847656 12.92578125 2.79882812 C8.58958942 2.32290463 4.29609164 1.77162811 0 1 C0 0.67 0 0.34 0 0 Z " fill="#CC851A" transform="translate(384,48)"/>
<path d="M0 0 C0.625 1.8125 0.625 1.8125 1 4 C0.01 5.485 0.01 5.485 -1 7 C-1 8.32 -1 9.64 -1 11 C-4 13.25 -4 13.25 -7 15 C-5.45454854 9.52067211 -2.84456788 4.88570819 0 0 Z " fill="#1F0A02" transform="translate(305,274)"/>
<path d="M0 0 C0.66 0.33 1.32 0.66 2 1 C-1.19990508 3.74277578 -4.00499382 5.6302836 -8 7 C-7.67 7.66 -7.34 8.32 -7 9 C-10.69418201 10.231394 -13.2056261 9.64432764 -17 9 C-14.54686979 6.54686979 -12.28167831 5.77986726 -9.0625 4.5 C-5.7458818 3.17818862 -2.97816228 1.98544152 0 0 Z " fill="#E1931A" transform="translate(279,223)"/>
<path d="M0 0 C0.33 0 0.66 0 1 0 C1.125 7.75 1.125 7.75 0 10 C0.66 10 1.32 10 2 10 C2 10.66 2 11.32 2 12 C1.01 12 0.02 12 -1 12 C-1.33 13.32 -1.66 14.64 -2 16 C-3.65 16.33 -5.3 16.66 -7 17 C-6.401875 16.236875 -5.80375 15.47375 -5.1875 14.6875 C-2.1892401 10.25946492 -1.20772995 5.14200176 0 0 Z " fill="#DE8E16" transform="translate(330,209)"/>
<path d="M0 0 C3.11322561 2.96597845 5.70506547 6.09856134 8.25 9.5625 C8.95640625 10.51253906 9.6628125 11.46257812 10.390625 12.44140625 C12 15 12 15 12 18 C6.9598908 15.68427415 5.96704968 13.04591005 4 8 C2.67541292 5.99419671 1.3440093 3.99284138 0 2 C0 1.34 0 0.68 0 0 Z " fill="#DC8F1D" transform="translate(112,316)"/>
<path d="M0 0 C0.33 0.66 0.66 1.32 1 2 C-2.75 5.875 -2.75 5.875 -5 7 C-5.65213292 9.02463255 -5.65213292 9.02463255 -6 11 C-7.32 11.33 -8.64 11.66 -10 12 C-8.50728166 7.3861433 -6.26639972 4.50540458 -3 1 C-2.01 0.67 -1.02 0.34 0 0 Z " fill="#E28F14" transform="translate(189,259)"/>
<path d="M0 0 C0 0.99 0 1.98 0 3 C-1.734375 4.1171875 -1.734375 4.1171875 -4 5 C-6.140625 4.3203125 -6.140625 4.3203125 -8.25 3.125 C-8.95640625 2.73570312 -9.6628125 2.34640625 -10.390625 1.9453125 C-10.92171875 1.63335937 -11.4528125 1.32140625 -12 1 C-12 0.67 -12 0.34 -12 0 C-7.6835078 -0.76173392 -4.25566547 -1.16063604 0 0 Z " fill="#EFA331" transform="translate(234,459)"/>
<path d="M0 0 C0.66 0 1.32 0 2 0 C1.67 0.99 1.34 1.98 1 3 C0.34 3 -0.32 3 -1 3 C-1 4.32 -1 5.64 -1 7 C-1.66 7 -2.32 7 -3 7 C-2.938125 8.2375 -2.87625 9.475 -2.8125 10.75 C-2.79637174 13.78211302 -2.89348977 14.82248296 -4.5 17.5 C-4.995 17.995 -5.49 18.49 -6 19 C-5.55197406 12.3259584 -4.95319619 4.95319619 0 0 Z " fill="#381A02" transform="translate(168,247)"/>
<path d="M0 0 C0.99 0.33 1.98 0.66 3 1 C-1.95 4.3 -6.9 7.6 -12 11 C-12.33 10.34 -12.66 9.68 -13 9 C-10.71141653 6.47517566 -8.37656871 4.96866677 -5.375 3.375 C-2.49917615 1.94660084 -2.49917615 1.94660084 0 0 Z " fill="#260900" transform="translate(267,410)"/>
<path d="M0 0 C0.33 0.66 0.66 1.32 1 2 C1.66 2 2.32 2 3 2 C2.67 3.65 2.34 5.3 2 7 C2.66 7.33 3.32 7.66 4 8 C3.01 8.66 2.02 9.32 1 10 C-1.31 7.69 -3.62 5.38 -6 3 C-5.34 2.67 -4.68 2.34 -4 2 C-3.01 2.66 -2.02 3.32 -1 4 C-0.67 2.68 -0.34 1.36 0 0 Z " fill="#F5AB3F" transform="translate(134,385)"/>
<path d="M0 0 C3.2910841 3.60957611 4.54663921 6.12637153 5 11 C1.7 11 -1.6 11 -5 11 C-1 8 -1 8 2 8 C2 7.01 2 6.02 2 5 C1.34 5 0.68 5 0 5 C0 3.35 0 1.7 0 0 Z " fill="#E2921B" transform="translate(263,332)"/>
<path d="M0 0 C0.99 0.33 1.98 0.66 3 1 C1.9318153 6.11365014 0.76892524 11.07227969 -1 16 C-1.66 14.68 -2.32 13.36 -3 12 C-2.34 12 -1.68 12 -1 12 C-0.73067479 7.34947128 -0.73067479 7.34947128 -2 3 C-1.34 3 -0.68 3 0 3 C0 2.01 0 1.02 0 0 Z " fill="#F2B455" transform="translate(448,206)"/>
<path d="M0 0 C2.8125 -0.3125 2.8125 -0.3125 6 0 C7.9375 2.25 7.9375 2.25 9 5 C8.6875 7.3125 8.6875 7.3125 8 9 C6.68 8.67 5.36 8.34 4 8 C4 6.02 4 4.04 4 2 C2.68 1.34 1.36 0.68 0 0 Z " fill="#E39212" transform="translate(146,264)"/>
<path d="M0 0 C0.66 0 1.32 0 2 0 C2 1.32 2 2.64 2 4 C-6.25 4 -14.5 4 -23 4 C-23 3.67 -23 3.34 -23 3 C-15.41 2.67 -7.82 2.34 0 2 C0 1.34 0 0.68 0 0 Z " fill="#BFBAB9" transform="translate(287,155)"/>
<path d="M0 0 C2 2 2 2 2.125 4.625 C2.08375 5.40875 2.0425 6.1925 2 7 C2.66 7 3.32 7 4 7 C4 11.29 4 15.58 4 20 C3.67 20 3.34 20 3 20 C2.49550598 17.41747107 1.99625699 14.83411297 1.5 12.25 C1.35691406 11.52039063 1.21382812 10.79078125 1.06640625 10.0390625 C0.41111121 6.60656468 0 3.50830509 0 0 Z " fill="#EAB661" transform="translate(9,138)"/>
<path d="M0 0 C3 1 3 1 4 3 C4.07092842 5.2072923 4.08415025 7.41667452 4.0625 9.625 C4.05347656 10.81351563 4.04445313 12.00203125 4.03515625 13.2265625 C4.02355469 14.14179688 4.01195312 15.05703125 4 16 C3.67 16 3.34 16 3 16 C2.49595192 13.89679937 1.99689492 11.79240209 1.5 9.6875 C1.08234375 7.92986328 1.08234375 7.92986328 0.65625 6.13671875 C0 3 0 3 0 0 Z " fill="#EAAF51" transform="translate(15,169)"/>
<path d="M0 0 C2.7143239 2.7143239 2.85269322 5.31063475 3 9 C2.79507529 12.35198274 2.43542818 15.67064918 2 19 C1.67 19 1.34 19 1 19 C-0.15316726 12.65758005 -0.09507063 6.43311296 0 0 Z " fill="#F39610" transform="translate(7,110)"/>
<path d="M0 0 C5.44693314 -0.09688221 10.63904667 -0.12862175 16 1 C16 1.33 16 1.66 16 2 C15.25234375 2.04898437 14.5046875 2.09796875 13.734375 2.1484375 C12.74953125 2.22320312 11.7646875 2.29796875 10.75 2.375 C9.28820312 2.47941406 9.28820312 2.47941406 7.796875 2.5859375 C5.10366811 2.98465249 3.33036721 3.63507063 1 5 C0.67 3.35 0.34 1.7 0 0 Z " fill="#F3B75C" transform="translate(372,10)"/>
<path d="M0 0 C0 0.66 0 1.32 0 2 C0.99 2.33 1.98 2.66 3 3 C3 4.32 3 5.64 3 7 C3.66 7 4.32 7 5 7 C4.67 7.66 4.34 8.32 4 9 C1.03 6.69 -1.94 4.38 -5 2 C-2 0 -2 0 0 0 Z " fill="#EDAB43" transform="translate(158,410)"/>
<path d="M0 0 C0.66 0 1.32 0 2 0 C2 0.99 2 1.98 2 3 C2.66 3 3.32 3 4 3 C4.33 3.99 4.66 4.98 5 6 C5.66 5.34 6.32 4.68 7 4 C7.66 5.98 8.32 7.96 9 10 C8.01 10.33 7.02 10.66 6 11 C2.90407165 7.4912812 1.25805377 4.50802601 0 0 Z " fill="#E79317" transform="translate(251,331)"/>
<path d="M0 0 C0.33 0.66 0.66 1.32 1 2 C1.66 2 2.32 2 3 2 C1.6302836 5.99500618 -0.25722422 8.80009492 -3 12 C-3.33 9.36 -3.66 6.72 -4 4 C-3.01 4.33 -2.02 4.66 -1 5 C-0.67 3.35 -0.34 1.7 0 0 Z " fill="#F2A938" transform="translate(401,311)"/>
<path d="M0 0 C7 8.75 7 8.75 7 13 C6.01 13 5.02 13 4 13 C0.69613575 8.93370553 0.42780407 5.04808808 0 0 Z " fill="#E39120" transform="translate(87,274)"/>
<path d="M0 0 C2.64 0.66 5.28 1.32 8 2 C8 2.66 8 3.32 8 4 C8.99 4 9.98 4 11 4 C11 4.99 11 5.98 11 7 C6.89188572 5.55007731 3.53144334 3.54592427 0 1 C0 0.67 0 0.34 0 0 Z M8 0 C8.66 0.66 9.32 1.32 10 2 C9.34 2 8.68 2 8 2 C8 1.34 8 0.68 8 0 Z " fill="#EBAB45" transform="translate(194,442)"/>
<path d="M0 0 C1.51553092 3.97450493 0.49888623 7.20481149 -0.4375 11.25 C-0.72496094 12.51328125 -1.01242187 13.7765625 -1.30859375 15.078125 C-1.53675781 16.04234375 -1.76492188 17.0065625 -2 18 C-2.33 18 -2.66 18 -3 18 C-2.8863485 15.37405216 -2.75960946 12.74988453 -2.625 10.125 C-2.5940625 9.37863281 -2.563125 8.63226563 -2.53125 7.86328125 C-2.2265625 2.2265625 -2.2265625 2.2265625 0 0 Z " fill="#EBB45C" transform="translate(463,154)"/>
<path d="M0 0 C1.98 0 3.96 0 6 0 C5.835 0.763125 5.67 1.52625 5.5 2.3125 C4.90854604 5.03596236 4.90854604 5.03596236 5 8 C2.5 5.6875 2.5 5.6875 0 3 C0 2.01 0 1.02 0 0 Z " fill="#F6AA39" transform="translate(123,379)"/>
<path d="M0 0 C4.25209792 4.12324647 8.13635705 8.51282966 12 13 C11.67 13.66 11.34 14.32 11 15 C9.29115995 13.37660195 7.62553283 11.70680947 6 10 C6 9.34 6 8.68 6 8 C5.01 8 4.02 8 3 8 C0 2.25 0 2.25 0 0 Z " fill="#D78D1F" transform="translate(125,334)"/>
<path d="M0 0 C0.99 0 1.98 0 3 0 C3.33 0.99 3.66 1.98 4 3 C1 5 1 5 -2 6 C-2.33 6.66 -2.66 7.32 -3 8 C-3.66 8 -4.32 8 -5 8 C-3.63029745 5.04987143 -2.17390875 2.4347778 0 0 Z " fill="#E58F12" transform="translate(352,331)"/>
<path d="M0 0 C0.8125 1.625 0.8125 1.625 1 4 C-0.46818136 6.24609835 -2.15852858 8.02378677 -4 10 C-5.32 9.34 -6.64 8.68 -8 8 C-6.50260417 6.79557292 -5.00520833 5.59114583 -3.5078125 4.38671875 C-1.74707893 2.87729455 -1.74707893 2.87729455 0 0 Z " fill="#E89214" transform="translate(171,296)"/>
<path d="M0 0 C0.99 0.33 1.98 0.66 3 1 C0.525 5.455 0.525 5.455 -2 10 C-2.33 10 -2.66 10 -3 10 C-3.29296875 3.9453125 -3.29296875 3.9453125 -3 2 C-2.01 1.34 -1.02 0.68 0 0 Z " fill="#F1AA41" transform="translate(410,298)"/>
<path d="M0 0 C2.10353495 -0.0810206 4.20795952 -0.13919907 6.3125 -0.1875 C7.48425781 -0.22230469 8.65601563 -0.25710938 9.86328125 -0.29296875 C13 0 13 0 14.90625 1.34375 C16.40545527 3.61397512 16.21562026 5.34068352 16 8 C15.5875 7.21625 15.175 6.4325 14.75 5.625 C10.53512912 1.60171416 5.64130145 1.59428805 0 1 C0 0.67 0 0.34 0 0 Z " fill="#240800" transform="translate(139,261)"/>
<path d="M0 0 C1.60517097 0.08733576 3.20921662 0.19552224 4.8125 0.3125 C6.15248047 0.39951172 6.15248047 0.39951172 7.51953125 0.48828125 C10.30604 1.06313581 11.24135754 1.8206856 13 4 C11.02 4.33 9.04 4.66 7 5 C7 4.01 7 3.02 7 2 C5.02 2 3.04 2 1 2 C0.67 1.34 0.34 0.68 0 0 Z M5 4 C5.99 4.495 5.99 4.495 7 5 C6.67 5.66 6.34 6.32 6 7 C5.67 6.01 5.34 5.02 5 4 Z " fill="#F2AC43" transform="translate(417,16)"/>
<path d="M0 0 C2.87001054 2.8071062 4.87211583 4.85072094 5.12109375 9.03515625 C5.12460114 11.02384409 5.0662529 13.01241298 5 15 C2.88955618 11.83433427 2.24447923 9.48802585 1.375 5.8125 C1.11460938 4.72582031 0.85421875 3.63914063 0.5859375 2.51953125 C0.39257812 1.68808594 0.19921875 0.85664063 0 0 Z " fill="#2D0F01" transform="translate(53,183)"/>
<path d="M0 0 C0.66 0 1.32 0 2 0 C4.84984298 4.65474354 6.7023817 8.70139194 8 14 C7.01 14.495 7.01 14.495 6 15 C4.99781939 12.6884227 3.99816342 10.37581116 3 8.0625 C2.71382813 7.40314453 2.42765625 6.74378906 2.1328125 6.06445312 C0 1.11328125 0 1.11328125 0 0 Z " fill="#290C00" transform="translate(75,247)"/>
<path d="M0 0 C0.66 0 1.32 0 2 0 C2.72482748 1.76414623 3.42939296 3.53662904 4.125 5.3125 C4.51945312 6.29863281 4.91390625 7.28476563 5.3203125 8.30078125 C5.54460938 9.19152344 5.76890625 10.08226562 6 11 C5.01 12.485 5.01 12.485 4 14 C3.32739649 12.23141309 2.66211605 10.46003984 2 8.6875 C1.62875 7.70136719 1.2575 6.71523437 0.875 5.69921875 C0 3 0 3 0 0 Z " fill="#E9AE50" transform="translate(29,219)"/>
<path d="M0 0 C0 3.61029169 -0.96092582 6.55806676 -2 10 C-2.99 9.67 -3.98 9.34 -5 9 C-5.33 9.66 -5.66 10.32 -6 11 C-6.66 10.67 -7.32 10.34 -8 10 C-5.36 6.7 -2.72 3.4 0 0 Z " fill="#E19419" transform="translate(346,339)"/>
<path d="M0 0 C2.38672669 2.96283313 4.7353371 5.94270509 7 9 C5.02 9.33 3.04 9.66 1 10 C1.33 8.02 1.66 6.04 2 4 C1.34 4 0.68 4 0 4 C0 2.68 0 1.36 0 0 Z " fill="#E38F14" transform="translate(295,327)"/>
<path d="M0 0 C2.97 0.495 2.97 0.495 6 1 C6 1.99 6 2.98 6 4 C7.65 4 9.3 4 11 4 C10.67 4.99 10.34 5.98 10 7 C5.56541027 5.6062718 3.12621626 3.39417765 0 0 Z " fill="#E9AB4D" transform="translate(184,435)"/>
<path d="M0 0 C-0.639375 0.268125 -1.27875 0.53625 -1.9375 0.8125 C-4.33131686 1.88667752 -4.33131686 1.88667752 -5 5 C-7.97 4.505 -7.97 4.505 -11 4 C-8.32997607 0.73663741 -4.08378642 -2.04189321 0 0 Z " fill="#EB9418" transform="translate(261,420)"/>
<path d="M0 0 C3.93846154 3.32307692 3.93846154 3.32307692 4.25 6.75 C4.1675 7.4925 4.085 8.235 4 9 C4.99 9 5.98 9 7 9 C6.67 10.32 6.34 11.64 6 13 C0 5.8 0 5.8 0 0 Z " fill="#DD901D" transform="translate(283,327)"/>
<path d="M0 0 C0 2 0 4 0 6 C-1.32 6 -2.64 6 -4 6 C-4 6.99 -4 7.98 -4 9 C-5.32 8.67 -6.64 8.34 -8 8 C-5.36 5.36 -2.72 2.72 0 0 Z " fill="#DA8B1C" transform="translate(241,241)"/>
<path d="M0 0 C0.625 1.8125 0.625 1.8125 1 4 C0.01 5.485 0.01 5.485 -1 7 C-2.65 6.01 -4.3 5.02 -6 4 C-4.03617993 2.49440461 -2.21736634 1.10868317 0 0 Z " fill="#2F2A28" transform="translate(359,128)"/>
<path d="M0 0 C3.50714051 1.89575163 5.94461059 3.53829152 8 7 C8 7.99 8 8.98 8 10 C7.01 10 6.02 10 5 10 C5 8.35 5 6.7 5 5 C4.01 5 3.02 5 2 5 C2 4.01 2 3.02 2 2 C1.34 2 0.68 2 0 2 C0 1.34 0 0.68 0 0 Z " fill="#E89719" transform="translate(197,405)"/>
<path d="M0 0 C1.32 0.33 2.64 0.66 4 1 C2.50163895 4.11198065 0.80066242 7.0534615 -1 10 C-1.5534764 7.92446352 -2 6.15634036 -2 4 C-1.01 4 -0.02 4 1 4 C0.67 2.68 0.34 1.36 0 0 Z " fill="#EA9217" transform="translate(170,311)"/>
<path d="M0 0 C0.84119973 2.39957614 1.11193544 3.64922558 0.328125 6.10546875 C-0.02765625 6.79253906 -0.3834375 7.47960937 -0.75 8.1875 C-1.26820313 9.22970703 -1.26820313 9.22970703 -1.796875 10.29296875 C-3 12 -3 12 -6 13 C-4.31326082 8.50202887 -2.18326108 4.27113698 0 0 Z " fill="#E1911A" transform="translate(394,262)"/>
<path d="M0 0 C1.32 0.33 2.64 0.66 4 1 C3.67 1.99 3.34 2.98 3 4 C3.99 4.66 4.98 5.32 6 6 C3.03 5.67 0.06 5.34 -3 5 C-2.67 4.34 -2.34 3.68 -2 3 C-1.34 3 -0.68 3 0 3 C0 2.01 0 1.02 0 0 Z " fill="#DE8F11" transform="translate(317,222)"/>
<path d="M0 0 C0.33 0 0.66 0 1 0 C1.08086147 1.79093191 1.13912702 3.58289628 1.1875 5.375 C1.22230469 6.37273437 1.25710937 7.37046875 1.29296875 8.3984375 C1.19628906 9.25695312 1.09960938 10.11546875 1 11 C0.01 11.66 -0.98 12.32 -2 13 C-1.85769192 11.58297487 -1.71099254 10.1663904 -1.5625 8.75 C-1.48128906 7.96109375 -1.40007812 7.1721875 -1.31640625 6.359375 C-1.02365007 4.17635361 -0.57935581 2.1226818 0 0 Z " fill="#371B04" transform="translate(166,327)"/>
<path d="M0 0 C-3.96 1.65 -7.92 3.3 -12 5 C-11.67 3.68 -11.34 2.36 -11 1 C-4.5 -1.125 -4.5 -1.125 0 0 Z " fill="#EAB159" transform="translate(14,27)"/>
<path d="M0 0 C0.99 0.33 1.98 0.66 3 1 C1.35 2.98 -0.3 4.96 -2 7 C-2.66 5.68 -3.32 4.36 -4 3 C-2.1875 1.4375 -2.1875 1.4375 0 0 Z " fill="#F2AB3D" transform="translate(360,370)"/>
<path d="M0 0 C-1.29299694 2.88437779 -2.65941363 4.87219421 -5 7 C-5.99 5.35 -6.98 3.7 -8 2 C-7.34 1.67 -6.68 1.34 -6 1 C-6 1.66 -6 2.32 -6 3 C-5.38125 2.505 -4.7625 2.01 -4.125 1.5 C-2 0 -2 0 0 0 Z " fill="#160600" transform="translate(138,337)"/>
<path d="M0 0 C3.96 0.33 7.92 0.66 12 1 C8.32003497 3.45331002 6.34586828 3.39507893 2 3 C1.34 2.01 0.68 1.02 0 0 Z " fill="#321200" transform="translate(192,251)"/>
<path d="M0 0 C0.66 0 1.32 0 2 0 C1.71682074 1.60568666 1.42312209 3.20952047 1.125 4.8125 C0.96257812 5.70582031 0.80015625 6.59914062 0.6328125 7.51953125 C0 10 0 10 -2 13 C-2 12.01 -2 11.02 -2 10 C-2.66 10 -3.32 10 -4 10 C-4 9.34 -4 8.68 -4 8 C-3.01 8 -2.02 8 -1 8 C-0.67 5.36 -0.34 2.72 0 0 Z " fill="#2E1100" transform="translate(329,207)"/>
<path d="M0 0 C2.64 0.66 5.28 1.32 8 2 C8 3.65 8 5.3 8 7 C6.66382648 6.02471263 5.3311249 5.04466681 4 4.0625 C3.2575 3.51722656 2.515 2.97195313 1.75 2.41015625 C1.1725 1.94480469 0.595 1.47945313 0 1 C0 0.67 0 0.34 0 0 Z " fill="#EFAC44" transform="translate(143,402)"/>
<path d="M0 0 C1.32 0.66 2.64 1.32 4 2 C1.03 4.475 1.03 4.475 -2 7 C-2 6.34 -2 5.68 -2 5 C-2.66 4.67 -3.32 4.34 -4 4 C-2.68 3.34 -1.36 2.68 0 2 C0 1.34 0 0.68 0 0 Z " fill="#F2B34C" transform="translate(336,394)"/>
<path d="M0 0 C-1.64169528 2.02054804 -3.30911778 4.02043058 -5 6 C-5.33 6 -5.66 6 -6 6 C-6 4.02 -6 2.04 -6 0 C-3.50907189 -1.24546405 -2.58919267 -0.7767578 0 0 Z " fill="#EFAC44" transform="translate(356,379)"/>
<path d="M0 0 C-0.54269531 0.33773437 -1.08539063 0.67546875 -1.64453125 1.0234375 C-2.71767578 1.69246094 -2.71767578 1.69246094 -3.8125 2.375 C-4.87404297 3.03628906 -4.87404297 3.03628906 -5.95703125 3.7109375 C-7.65432039 4.78188476 -9.33014358 5.88676239 -11 7 C-10.67 5.68 -10.34 4.36 -10 3 C-9.34 3 -8.68 3 -8 3 C-8 2.34 -8 1.68 -8 1 C-3.375 -1.125 -3.375 -1.125 0 0 Z " fill="#2F1000" transform="translate(251,235)"/>
<path d="M0 0 C0.33 0 0.66 0 1 0 C1.08114106 1.77007714 1.13925505 3.54122098 1.1875 5.3125 C1.23970703 6.79169922 1.23970703 6.79169922 1.29296875 8.30078125 C1 11 1 11 -0.51171875 12.85546875 C-1.00285156 13.23316406 -1.49398438 13.61085937 -2 14 C-2.042721 12.33388095 -2.04063832 10.66617115 -2 9 C-1.67 8.67 -1.34 8.34 -1 8 C-0.76924918 6.65252916 -0.58846937 5.29622435 -0.4375 3.9375 C-0.293125 2.638125 -0.14875 1.33875 0 0 Z " fill="#2B0C00" transform="translate(316,200)"/>
<path d="M0 0 C1.09898702 3.29696105 0.87124444 4.40494903 0.0625 7.6875 C-0.13214844 8.49574219 -0.32679688 9.30398437 -0.52734375 10.13671875 C-0.76130859 11.05904297 -0.76130859 11.05904297 -1 12 C-1.33 12 -1.66 12 -2 12 C-2 8.37 -2 4.74 -2 1 C-1.34 0.67 -0.68 0.34 0 0 Z " fill="#F0B860" transform="translate(459,173)"/>
<path d="M0 0 C2.475 0.495 2.475 0.495 5 1 C5 1.66 5 2.32 5 3 C6.32 3 7.64 3 9 3 C8.67 3.99 8.34 4.98 8 6 C1.125 2.25 1.125 2.25 0 0 Z " fill="#EDB157" transform="translate(170,425)"/>
<path d="M0 0 C2.31 0.66 4.62 1.32 7 2 C7 3.65 7 5.3 7 7 C5.83040013 6.02433888 4.66438823 5.044375 3.5 4.0625 C2.8503125 3.51722656 2.200625 2.97195313 1.53125 2.41015625 C1.0259375 1.94480469 0.520625 1.47945313 0 1 C0 0.67 0 0.34 0 0 Z " fill="#F4B75E" transform="translate(136,395)"/>
<path d="M0 0 C3.43595166 1.52708963 6.11912454 3.59927045 9 6 C8.67 6.99 8.34 7.98 8 9 C6.66368764 7.6905332 5.33102075 6.37734515 4 5.0625 C3.2575 4.33160156 2.515 3.60070312 1.75 2.84765625 C0 1 0 1 0 0 Z " fill="#1B0600" transform="translate(162,374)"/>
<path d="M0 0 C0.33 0 0.66 0 1 0 C1.33 1.65 1.66 3.3 2 5 C4.31 5.33 6.62 5.66 9 6 C9 6.33 9 6.66 9 7 C6.03 7 3.06 7 0 7 C-1.125 2.25 -1.125 2.25 0 0 Z " fill="#200C00" transform="translate(152,337)"/>
<path d="M0 0 C0.66 0 1.32 0 2 0 C0.6302836 3.99500618 -1.25722422 6.80009492 -4 10 C-3.52651586 5.8333396 -2.95303159 3.07115285 0 0 Z " fill="#270E01" transform="translate(375,294)"/>
<path d="M0 0 C0.33 0.66 0.66 1.32 1 2 C0.22265625 3.9453125 0.22265625 3.9453125 -0.9375 6.125 C-1.31777344 6.84945313 -1.69804687 7.57390625 -2.08984375 8.3203125 C-2.39019531 8.87460937 -2.69054687 9.42890625 -3 10 C-3.33 10 -3.66 10 -4 10 C-4 8.02 -4 6.04 -4 4 C-3.34 4 -2.68 4 -2 4 C-2 3.01 -2 2.02 -2 1 C-1.34 0.67 -0.68 0.34 0 0 Z " fill="#F0B75C" transform="translate(425,272)"/>
<path d="M0 0 C0.33 0 0.66 0 1 0 C0.67 3.63 0.34 7.26 0 11 C-0.99 10.01 -1.98 9.02 -3 8 C-2.77669287 4.35265021 -2.61627165 2.61627165 0 0 Z " fill="#DF9327" transform="translate(162,257)"/>
<path d="M0 0 C2.0625 0.4375 2.0625 0.4375 4 1 C3.01 2.98 2.02 4.96 1 7 C0.34 7 -0.32 7 -1 7 C-1.04254356 5.00045254 -1.04080783 2.99958364 -1 1 C-0.67 0.67 -0.34 0.34 0 0 Z " fill="#150100" transform="translate(38,58)"/>
<path d="M0 0 C-1.12073862 0.83905565 -2.24674547 1.67107831 -3.375 2.5 C-4.00148438 2.9640625 -4.62796875 3.428125 -5.2734375 3.90625 C-7 5 -7 5 -9 5 C-8.00233891 2.50584728 -7.31383315 1.21259665 -5.0625 -0.3125 C-3 -1 -3 -1 0 0 Z " fill="#220A00" transform="translate(279,405)"/>
<path d="M0 0 C-0.625 1.875 -0.625 1.875 -2 4 C-5.125 5.25 -5.125 5.25 -8 6 C-3.375 0 -3.375 0 0 0 Z " fill="#E08E18" transform="translate(316,375)"/>
<path d="M0 0 C0.33 0.99 0.66 1.98 1 3 C-3.75 7.875 -3.75 7.875 -6 9 C-4.47291037 5.56404834 -2.40072955 2.88087546 0 0 Z " fill="#210900" transform="translate(231,312)"/>
<path d="M0 0 C0.66 0 1.32 0 2 0 C0.7508258 3.45925163 -0.67527795 6.14693203 -3 9 C-3.33 7.68 -3.66 6.36 -4 5 C-3.01 4.67 -2.02 4.34 -1 4 C-0.26676204 1.98491642 -0.26676204 1.98491642 0 0 Z " fill="#280F00" transform="translate(380,285)"/>
<path d="M0 0 C0.99 0.33 1.98 0.66 3 1 C1.68 3.64 0.36 6.28 -1 9 C-2.07349791 4.70600835 -1.79682816 3.80504787 0 0 Z " fill="#EEB961" transform="translate(417,285)"/>
<path d="M0 0 C1.32 0.33 2.64 0.66 4 1 C4.33 3.64 4.66 6.28 5 9 C2.67527795 6.14693203 1.2491742 3.45925163 0 0 Z " fill="#2E1101" transform="translate(83,265)"/>
<path d="M0 0 C1.32 0.33 2.64 0.66 4 1 C4.33 2.65 4.66 4.3 5 6 C2.5 4.6875 2.5 4.6875 0 3 C0 2.01 0 1.02 0 0 Z " fill="#E9941A" transform="translate(182,244)"/>
<path d="M0 0 C0.33 0.66 0.66 1.32 1 2 C1.66 2.33 2.32 2.66 3 3 C1.35 4.65 -0.3 6.3 -2 8 C-2.33 6.68 -2.66 5.36 -3 4 C-2.34 3.67 -1.68 3.34 -1 3 C-0.67 2.01 -0.34 1.02 0 0 Z " fill="#F3AB46" transform="translate(372,354)"/>
<path d="M0 0 C0.99 0 1.98 0 3 0 C3.12375 0.61875 3.2475 1.2375 3.375 1.875 C3.87197356 4.19120832 3.87197356 4.19120832 6 6 C5.01 7.485 5.01 7.485 4 9 C0 2.25 0 2.25 0 0 Z " fill="#E8B25E" transform="translate(65,301)"/>
<path d="M0 0 C4.95 0.99 4.95 0.99 10 2 C10 2.33 10 2.66 10 3 C7.03 3 4.06 3 1 3 C0.67 2.01 0.34 1.02 0 0 Z " fill="#EEB862" transform="translate(463,26)"/>
<path d="M0 0 C-3.08888522 2.05925681 -3.70935927 2.2390374 -7.1875 2.125 C-9.0746875 2.063125 -9.0746875 2.063125 -11 2 C-6.98764085 -0.6749061 -4.6342454 -1.48957888 0 0 Z " fill="#EDBA6A" transform="translate(25,24)"/>
<path d="M0 0 C0.99 0.33 1.98 0.66 3 1 C1.95125002 3.62187494 1.35068687 4.79371361 -1.125 6.25 C-1.74375 6.4975 -2.3625 6.745 -3 7 C-3 6.01 -3 5.02 -3 4 C-2.01 4 -1.02 4 0 4 C0 2.68 0 1.36 0 0 Z " fill="#EFB14E" transform="translate(296,428)"/>
<path d="M0 0 C2.875 0.25 2.875 0.25 6 1 C7.375 3.0625 7.375 3.0625 8 5 C4.62496331 3.8141763 2.35277269 2.72426311 0 0 Z " fill="#280A00" transform="translate(210,413)"/>
<path d="M0 0 C0.33 0.99 0.66 1.98 1 3 C-0.32 3.99 -1.64 4.98 -3 6 C-3 5.01 -3 4.02 -3 3 C-3.66 2.67 -4.32 2.34 -5 2 C-2 0 -2 0 0 0 Z " fill="#F29F21" transform="translate(329,402)"/>
<path d="M0 0 C2.475 0.495 2.475 0.495 5 1 C4.67 2.65 4.34 4.3 4 6 C0 1.125 0 1.125 0 0 Z " fill="#EFAF51" transform="translate(88,338)"/>
<path d="M0 0 C0.66 0 1.32 0 2 0 C0.55746343 3.36591866 -1.33264727 5.51047079 -4 8 C-4 7.01 -4 6.02 -4 5 C-3.34 5 -2.68 5 -2 5 C-1.7834375 4.0409375 -1.7834375 4.0409375 -1.5625 3.0625 C-1 1 -1 1 0 0 Z " fill="#220B00" transform="translate(355,324)"/>
<path d="M0 0 C2.475 0.99 2.475 0.99 5 2 C3.625 4 3.625 4 2 6 C1.34 6 0.68 6 0 6 C0 4.02 0 2.04 0 0 Z " fill="#371500" transform="translate(234,300)"/>
<path d="M0 0 C0.99 0 1.98 0 3 0 C3 1.98 3 3.96 3 6 C3.66 6.33 4.32 6.66 5 7 C4.34 7.66 3.68 8.32 3 9 C2.01 6.03 1.02 3.06 0 0 Z " fill="#EAB25D" transform="translate(46,263)"/>
<path d="M0 0 C0.66 0 1.32 0 2 0 C1.67 0.99 1.34 1.98 1 3 C0.34 3 -0.32 3 -1 3 C-1 4.32 -1 5.64 -1 7 C-1.99 7.33 -2.98 7.66 -4 8 C-2.25 2.25 -2.25 2.25 0 0 Z " fill="#260C00" transform="translate(168,247)"/>
</svg>
